<svg xmlns="http://www.w3.org/2000/svg" xmlns:xlink="http://www.w3.org/1999/xlink" width="500" zoomAndPan="magnify" viewBox="0 0 375 374.999991" height="500" preserveAspectRatio="xMidYMid meet" version="1.0"><defs><clipPath id="d21c81f2cb"><path d="M 16 9.378906 L 360 9.378906 L 360 352 L 16 352 Z M 16 9.378906 " clip-rule="nonzero"/></clipPath></defs><g clip-path="url(#d21c81f2cb)"><path fill="#6a4dff" d="M 188.046875 8.917969 C 185.234375 8.917969 182.425781 8.988281 179.617188 9.125 C 176.808594 9.261719 174.003906 9.46875 171.207031 9.746094 C 168.410156 10.019531 165.617188 10.363281 162.835938 10.777344 C 160.054688 11.191406 157.285156 11.671875 154.527344 12.21875 C 151.769531 12.765625 149.027344 13.382812 146.300781 14.066406 C 143.574219 14.75 140.863281 15.5 138.171875 16.316406 C 135.480469 17.132812 132.8125 18.011719 130.164062 18.960938 C 127.519531 19.90625 124.894531 20.917969 122.296875 21.996094 C 119.699219 23.070312 117.128906 24.210938 114.589844 25.414062 C 112.046875 26.617188 109.535156 27.878906 107.054688 29.203125 C 104.574219 30.53125 102.128906 31.914062 99.71875 33.363281 C 97.304688 34.808594 94.929688 36.3125 92.59375 37.875 C 90.253906 39.433594 87.957031 41.054688 85.699219 42.730469 C 83.441406 44.402344 81.222656 46.132812 79.050781 47.917969 C 76.878906 49.699219 74.75 51.535156 72.664062 53.425781 C 70.582031 55.3125 68.546875 57.25 66.558594 59.238281 C 64.570312 61.226562 62.632812 63.265625 60.742188 65.347656 C 58.855469 67.429688 57.019531 69.558594 55.234375 71.734375 C 53.449219 73.90625 51.722656 76.121094 50.046875 78.382812 C 48.371094 80.640625 46.753906 82.9375 45.191406 85.277344 C 43.628906 87.613281 42.125 89.988281 40.679688 92.402344 C 39.234375 94.8125 37.847656 97.257812 36.523438 99.738281 C 35.195312 102.21875 33.933594 104.730469 32.730469 107.269531 C 31.527344 109.8125 30.390625 112.382812 29.3125 114.980469 C 28.238281 117.578125 27.226562 120.199219 26.277344 122.847656 C 25.332031 125.496094 24.449219 128.164062 23.632812 130.855469 C 22.816406 133.546875 22.066406 136.253906 21.382812 138.984375 C 20.699219 141.710938 20.085938 144.453125 19.535156 147.210938 C 18.988281 149.96875 18.507812 152.738281 18.09375 155.519531 C 17.683594 158.300781 17.339844 161.089844 17.0625 163.890625 C 16.785156 166.6875 16.578125 169.492188 16.441406 172.300781 C 16.304688 175.109375 16.234375 177.917969 16.234375 180.730469 C 25.285156 408.636719 350.84375 408.570312 359.859375 180.726562 C 359.859375 177.917969 359.792969 175.105469 359.652344 172.296875 C 359.515625 169.488281 359.308594 166.6875 359.03125 163.886719 C 358.757812 161.089844 358.414062 158.300781 358 155.519531 C 357.585938 152.738281 357.105469 149.96875 356.558594 147.210938 C 356.011719 144.453125 355.394531 141.710938 354.710938 138.980469 C 354.027344 136.253906 353.277344 133.542969 352.460938 130.855469 C 351.644531 128.164062 350.761719 125.496094 349.816406 122.847656 C 348.867188 120.199219 347.855469 117.578125 346.78125 114.980469 C 345.707031 112.382812 344.566406 109.8125 343.363281 107.269531 C 342.160156 104.726562 340.898438 102.21875 339.570312 99.738281 C 338.246094 97.257812 336.859375 94.8125 335.414062 92.398438 C 333.96875 89.988281 332.464844 87.613281 330.902344 85.273438 C 329.339844 82.9375 327.722656 80.640625 326.046875 78.378906 C 324.375 76.121094 322.644531 73.90625 320.859375 71.734375 C 319.074219 69.558594 317.238281 67.429688 315.351562 65.347656 C 313.464844 63.261719 311.523438 61.226562 309.535156 59.238281 C 307.546875 57.25 305.511719 55.3125 303.429688 53.425781 C 301.347656 51.535156 299.21875 49.699219 297.042969 47.917969 C 294.871094 46.132812 292.652344 44.402344 290.394531 42.726562 C 288.136719 41.054688 285.839844 39.433594 283.5 37.871094 C 281.164062 36.308594 278.789062 34.808594 276.375 33.359375 C 273.964844 31.914062 271.519531 30.53125 269.039062 29.203125 C 266.558594 27.878906 264.046875 26.617188 261.507812 25.414062 C 258.964844 24.210938 256.394531 23.070312 253.796875 21.996094 C 251.199219 20.917969 248.578125 19.90625 245.929688 18.960938 C 243.28125 18.011719 240.613281 17.132812 237.921875 16.316406 C 235.230469 15.5 232.523438 14.75 229.792969 14.066406 C 227.066406 13.382812 224.324219 12.765625 221.566406 12.21875 C 218.808594 11.671875 216.039062 11.191406 213.257812 10.777344 C 210.476562 10.363281 207.6875 10.019531 204.886719 9.746094 C 202.089844 9.46875 199.285156 9.261719 196.476562 9.125 C 193.667969 8.988281 190.859375 8.917969 188.046875 8.917969 Z M 220.917969 89.945312 C 221.671875 89.199219 222.488281 88.535156 223.371094 87.953125 C 224.253906 87.367188 225.1875 86.875 226.167969 86.472656 C 227.144531 86.070312 228.15625 85.769531 229.195312 85.5625 C 230.234375 85.359375 231.28125 85.253906 232.339844 85.253906 C 233.398438 85.253906 234.449219 85.359375 235.488281 85.5625 C 236.527344 85.769531 237.535156 86.070312 238.515625 86.472656 C 239.492188 86.875 240.425781 87.367188 241.308594 87.953125 C 242.191406 88.535156 243.011719 89.199219 243.761719 89.945312 L 258.957031 105.140625 C 259.402344 105.644531 259.816406 106.167969 260.203125 106.71875 C 260.589844 107.269531 260.941406 107.839844 261.265625 108.429688 C 261.585938 109.019531 261.875 109.625 262.128906 110.246094 C 262.382812 110.867188 262.601562 111.5 262.785156 112.148438 C 262.96875 112.792969 263.113281 113.449219 263.226562 114.109375 C 263.335938 114.773438 263.410156 115.441406 263.445312 116.109375 C 263.480469 116.78125 263.480469 117.453125 263.441406 118.121094 C 263.402344 118.792969 263.324219 119.460938 263.210938 120.121094 C 263.097656 120.785156 262.949219 121.4375 262.761719 122.082031 C 262.574219 122.726562 262.355469 123.359375 262.097656 123.980469 C 261.839844 124.601562 261.550781 125.207031 261.226562 125.792969 C 260.902344 126.382812 260.542969 126.949219 260.15625 127.5 C 259.769531 128.046875 259.351562 128.570312 258.90625 129.074219 C 258.457031 129.574219 257.984375 130.050781 257.484375 130.5 C 256.988281 130.949219 256.464844 131.367188 255.917969 131.757812 C 255.371094 132.148438 254.804688 132.507812 254.21875 132.835938 C 252.386719 134.453125 250.445312 135.316406 248.613281 133.484375 L 215.527344 100.289062 C 211.625 96.746094 219.148438 92.375 220.917969 89.945312 Z M 130.222656 180.648438 L 202.929688 107.941406 C 203.257812 107.609375 203.640625 107.359375 204.070312 107.179688 C 204.5 107 204.949219 106.910156 205.414062 106.910156 C 205.878906 106.910156 206.328125 107 206.757812 107.179688 C 207.191406 107.359375 207.570312 107.613281 207.898438 107.941406 L 241.03125 141.082031 C 241.359375 141.410156 241.613281 141.789062 241.792969 142.21875 C 241.972656 142.652344 242.058594 143.097656 242.058594 143.566406 C 242.058594 144.03125 241.972656 144.480469 241.792969 144.910156 C 241.613281 145.339844 241.359375 145.71875 241.03125 146.050781 L 168.328125 218.746094 C 168.136719 218.933594 167.921875 219.078125 167.675781 219.179688 C 167.429688 219.28125 167.175781 219.332031 166.910156 219.332031 C 166.644531 219.332031 166.386719 219.28125 166.144531 219.179688 C 165.898438 219.078125 165.679688 218.933594 165.492188 218.746094 L 130.222656 183.480469 C 130.035156 183.292969 129.890625 183.078125 129.789062 182.832031 C 129.6875 182.585938 129.636719 182.328125 129.636719 182.0625 C 129.636719 181.796875 129.6875 181.542969 129.789062 181.296875 C 129.890625 181.050781 130.035156 180.835938 130.222656 180.648438 Z M 120.339844 191.617188 C 120.476562 191.121094 120.796875 190.8125 121.296875 190.691406 C 121.792969 190.566406 122.21875 190.695312 122.570312 191.066406 L 157.898438 226.390625 C 157.980469 226.472656 158.054688 226.5625 158.113281 226.660156 C 158.171875 226.757812 158.21875 226.863281 158.25 226.972656 C 158.285156 227.082031 158.300781 227.195312 158.304688 227.3125 C 158.308594 227.425781 158.296875 227.539062 158.269531 227.652344 C 158.246094 227.765625 158.203125 227.871094 158.152344 227.972656 C 158.097656 228.074219 158.03125 228.167969 157.953125 228.25 C 157.875 228.335938 157.785156 228.410156 157.6875 228.46875 C 157.59375 228.53125 157.488281 228.582031 157.378906 228.613281 C 149.496094 231.121094 119.449219 236.242188 117.734375 236.695312 C 117.335938 236.691406 116.945312 236.644531 116.558594 236.554688 C 116.171875 236.464844 115.796875 236.335938 115.4375 236.164062 C 115.078125 235.992188 114.742188 235.78125 114.429688 235.535156 C 114.117188 235.289062 113.835938 235.011719 113.585938 234.707031 C 113.332031 234.398438 113.117188 234.066406 112.9375 233.710938 C 112.757812 233.355469 112.621094 232.984375 112.523438 232.601562 C 112.421875 232.214844 112.367188 231.824219 112.355469 231.425781 C 112.34375 231.027344 112.375 230.632812 112.453125 230.242188 C 113.050781 228.433594 118.199219 199.636719 120.339844 191.617188 Z M 264.242188 276.203125 C 261.339844 276.234375 258.457031 275.996094 255.597656 275.496094 C 252.738281 274.996094 249.949219 274.238281 247.230469 273.226562 C 244.507812 272.210938 241.90625 270.957031 239.414062 269.464844 C 236.925781 267.972656 234.59375 266.265625 232.417969 264.34375 C 231.550781 263.578125 230.652344 262.855469 229.71875 262.175781 C 228.789062 261.492188 227.828125 260.851562 226.835938 260.257812 C 225.847656 259.660156 224.832031 259.113281 223.792969 258.609375 C 222.753906 258.105469 221.691406 257.648438 220.613281 257.238281 C 219.53125 256.832031 218.433594 256.472656 217.320312 256.164062 C 216.207031 255.855469 215.085938 255.597656 213.949219 255.390625 C 212.8125 255.183594 211.667969 255.027344 210.519531 254.921875 C 209.367188 254.816406 208.214844 254.765625 207.058594 254.765625 C 205.902344 254.765625 204.75 254.816406 203.601562 254.921875 C 202.449219 255.027344 201.308594 255.183594 200.171875 255.390625 C 199.035156 255.597656 197.910156 255.855469 196.796875 256.164062 C 195.683594 256.472656 194.585938 256.832031 193.507812 257.238281 C 192.425781 257.648438 191.367188 258.105469 190.324219 258.609375 C 189.285156 259.113281 188.273438 259.660156 187.28125 260.257812 C 186.292969 260.851562 185.332031 261.492188 184.398438 262.175781 C 183.46875 262.855469 182.566406 263.578125 181.699219 264.34375 C 180.601562 265.277344 179.460938 266.164062 178.28125 267 C 177.105469 267.832031 175.890625 268.613281 174.644531 269.34375 C 173.394531 270.070312 172.121094 270.742188 170.8125 271.359375 C 169.507812 271.972656 168.175781 272.53125 166.820312 273.027344 C 165.464844 273.527344 164.089844 273.964844 162.695312 274.339844 C 161.300781 274.71875 159.890625 275.035156 158.46875 275.285156 C 157.046875 275.539062 155.617188 275.730469 154.179688 275.855469 C 152.742188 275.984375 151.300781 276.046875 149.855469 276.046875 C 148.410156 276.046875 146.96875 275.984375 145.53125 275.855469 C 144.089844 275.730469 142.660156 275.539062 141.238281 275.285156 C 139.816406 275.035156 138.410156 274.71875 137.015625 274.339844 C 135.621094 273.964844 134.246094 273.527344 132.890625 273.027344 C 131.535156 272.53125 130.203125 271.972656 128.898438 271.359375 C 127.589844 270.742188 126.3125 270.070312 125.066406 269.34375 C 123.820312 268.613281 122.605469 267.832031 121.425781 267 C 120.25 266.164062 119.109375 265.277344 118.007812 264.34375 C 115.265625 262.15625 112.371094 260.203125 109.316406 258.480469 C 109.011719 258.308594 108.726562 258.109375 108.460938 257.886719 C 108.191406 257.660156 107.949219 257.410156 107.734375 257.136719 C 107.515625 256.863281 107.328125 256.570312 107.164062 256.261719 C 107.003906 255.949219 106.875 255.628906 106.777344 255.292969 C 106.679688 254.957031 106.613281 254.617188 106.582031 254.269531 C 106.546875 253.921875 106.550781 253.574219 106.585938 253.226562 C 106.621094 252.878906 106.691406 252.535156 106.792969 252.203125 C 106.894531 251.867188 107.027344 251.546875 107.191406 251.238281 C 107.355469 250.929688 107.550781 250.640625 107.769531 250.371094 C 107.988281 250.097656 108.234375 249.851562 108.503906 249.628906 C 108.773438 249.40625 109.058594 249.210938 109.367188 249.042969 C 109.671875 248.875 109.992188 248.738281 110.328125 248.632812 C 110.660156 248.527344 111 248.457031 111.347656 248.417969 C 111.695312 248.378906 112.042969 248.375 112.390625 248.402344 C 112.738281 248.429688 113.082031 248.492188 113.417969 248.585938 C 113.753906 248.683594 114.078125 248.808594 114.386719 248.964844 C 127.203125 255.921875 131.976562 265.503906 149.855469 265.425781 C 152.179688 265.453125 154.484375 265.265625 156.773438 264.859375 C 159.0625 264.449219 161.289062 263.832031 163.460938 263 C 165.632812 262.171875 167.707031 261.144531 169.683594 259.925781 C 171.660156 258.703125 173.503906 257.304688 175.21875 255.734375 C 176.316406 254.800781 177.457031 253.914062 178.636719 253.078125 C 179.8125 252.246094 181.027344 251.464844 182.273438 250.734375 C 183.519531 250.007812 184.796875 249.335938 186.105469 248.71875 C 187.410156 248.105469 188.742188 247.546875 190.097656 247.050781 C 191.453125 246.550781 192.828125 246.113281 194.222656 245.734375 C 195.613281 245.359375 197.023438 245.042969 198.445312 244.792969 C 199.867188 244.539062 201.296875 244.347656 202.734375 244.222656 C 204.171875 244.09375 205.613281 244.03125 207.058594 244.03125 C 208.503906 244.03125 209.945312 244.09375 211.382812 244.222656 C 212.820312 244.347656 214.25 244.539062 215.671875 244.789062 C 217.09375 245.042969 218.503906 245.359375 219.898438 245.734375 C 221.289062 246.113281 222.664062 246.550781 224.019531 247.046875 C 225.375 247.546875 226.707031 248.105469 228.015625 248.71875 C 229.320312 249.335938 230.597656 250.007812 231.84375 250.734375 C 233.089844 251.460938 234.304688 252.242188 235.480469 253.078125 C 236.660156 253.914062 237.800781 254.796875 238.898438 255.734375 C 240.609375 257.304688 242.453125 258.699219 244.429688 259.921875 C 246.402344 261.144531 248.476562 262.171875 250.644531 263 C 252.816406 263.828125 255.042969 264.449219 257.328125 264.855469 C 259.617188 265.265625 261.921875 265.453125 264.242188 265.425781 C 264.59375 265.433594 264.9375 265.472656 265.28125 265.546875 C 265.621094 265.617188 265.953125 265.726562 266.277344 265.863281 C 266.597656 266 266.902344 266.167969 267.191406 266.367188 C 267.480469 266.5625 267.746094 266.789062 267.992188 267.035156 C 268.238281 267.285156 268.457031 267.558594 268.648438 267.847656 C 268.84375 268.140625 269.003906 268.449219 269.136719 268.773438 C 269.269531 269.097656 269.371094 269.429688 269.4375 269.773438 C 269.503906 270.117188 269.539062 270.464844 269.539062 270.8125 C 269.539062 271.164062 269.503906 271.511719 269.4375 271.855469 C 269.371094 272.199219 269.269531 272.53125 269.136719 272.855469 C 269.003906 273.179688 268.84375 273.488281 268.652344 273.78125 C 268.457031 274.070312 268.238281 274.34375 267.992188 274.59375 C 267.75 274.84375 267.480469 275.066406 267.191406 275.261719 C 266.902344 275.460938 266.597656 275.628906 266.277344 275.765625 C 265.957031 275.90625 265.625 276.011719 265.28125 276.085938 C 264.941406 276.15625 264.59375 276.199219 264.242188 276.203125 Z M 264.242188 276.203125 " fill-opacity="1" fill-rule="nonzero"/></g></svg>