<svg width="32" height="32" viewBox="0 0 55 55" fill="#6A4DFF" xmlns="http://www.w3.org/2000/svg">
<g clip-path="url(#clip0_15_1189)">
<path d="M39.6302 4.3252C35.0897 0.635476 29.1549 -0.784641 23.3465 0.429011C16.0879 1.9457 10.1659 7.89333 8.61045 15.2291C7.29894 21.4146 8.9151 27.6247 13.0446 32.2669C15.0927 34.5694 16.2206 37.4497 16.2206 40.3855V43.6082C16.2206 45.7088 17.5678 47.4999 19.4433 48.165V50.1609C19.4433 52.8264 21.6118 54.9949 24.2773 54.9949H30.7226C33.3881 54.9949 35.5566 52.8264 35.5566 50.1609V48.165C37.4321 47.4999 38.7792 45.7088 38.7792 43.6082V40.3855C38.7792 37.4873 39.9407 34.5662 42.0494 32.1604C45.136 28.639 46.8359 24.1208 46.8359 19.4383C46.8359 13.5551 44.2095 8.04651 39.6302 4.3252ZM32.3339 50.1609C32.3339 51.0494 31.6111 51.7723 30.7226 51.7723H24.2773C23.3888 51.7723 22.666 51.0494 22.666 50.1609V48.4422H32.3339V50.1609ZM35.5566 43.6082C35.5566 44.4967 34.8337 45.2195 33.9453 45.2195H21.0546C20.1661 45.2195 19.4433 44.4967 19.4433 43.6082V41.9969H35.5566V43.6082ZM27.4999 27.3528C28.588 27.3528 29.6759 27.1788 30.7226 26.8334V38.7743H24.2773V26.8334C25.324 27.1788 26.4118 27.3528 27.4999 27.3528ZM24.8063 23.5945L27.4999 18.2073L30.1935 23.5944C28.4668 24.3049 26.533 24.3049 24.8063 23.5945ZM39.6259 30.0362C37.3854 32.5923 36.0043 35.6456 35.6484 38.7742H33.9453V24.2835C33.9453 24.2814 33.9453 24.2794 33.9453 24.2772C33.9453 24.0573 33.8977 23.8151 33.7905 23.5876C33.7849 23.5757 33.7809 23.5634 33.7751 23.5518L28.9411 13.8838C28.6682 13.3379 28.1102 12.9931 27.4998 12.9931C26.8895 12.9931 26.3316 13.3379 26.0586 13.8838L21.2246 23.5518C21.1179 23.7656 21.0545 24.0255 21.0545 24.276C21.0545 24.2789 21.0545 24.2817 21.0545 24.2846V38.7743H19.3554C19.01 35.624 17.6545 32.6007 15.4525 30.1251C12.011 26.2562 10.6662 21.0706 11.7631 15.8975C13.0577 9.79169 17.9776 4.84308 24.0056 3.58356C28.8598 2.56928 33.8139 3.75125 37.5978 6.8262C41.4207 9.93284 43.6132 14.5297 43.6132 19.4383C43.6132 23.339 42.1972 27.1027 39.6259 30.0362Z" fill="#6A4DFF" fill-opacity="1"/>
<path d="M4.83398 19.4384H1.61133C0.721445 19.4384 0 20.1598 0 21.0497C0 21.9396 0.721445 22.661 1.61133 22.661H4.83398C5.72387 22.661 6.44531 21.9396 6.44531 21.0497C6.44531 20.1598 5.72387 19.4384 4.83398 19.4384Z" fill="#6A4DFF" fill-opacity="1"/>
<path d="M5.50136 11.3817L3.22262 9.10294C2.59334 8.47366 1.57316 8.47366 0.943882 9.10294C0.314604 9.73222 0.314604 10.7524 0.943882 11.3817L3.22262 13.6604C3.85201 14.2898 4.87219 14.2896 5.50136 13.6604C6.13064 13.0311 6.13064 12.011 5.50136 11.3817Z" fill="#6A4DFF" fill-opacity="1"/>
<path d="M5.50128 28.4389C4.872 27.8096 3.85182 27.8096 3.22254 28.4389L0.943801 30.7176C0.314631 31.3469 0.314631 32.3671 0.943801 32.9964C1.57297 33.6255 2.59316 33.6256 3.22254 32.9964L5.50128 30.7176C6.13045 30.0883 6.13045 29.0682 5.50128 28.4389Z" fill="#6A4DFF" fill-opacity="1"/>
<path d="M53.3887 19.4384H50.166C49.2761 19.4384 48.5547 20.1598 48.5547 21.0497C48.5547 21.9396 49.2761 22.661 50.166 22.661H53.3887C54.2786 22.661 55 21.9396 55 21.0497C55 20.1598 54.2786 19.4384 53.3887 19.4384Z" fill="#6A4DFF" fill-opacity="1"/>
<path d="M54.0561 9.10294C53.4269 8.47366 52.4066 8.47366 51.7773 9.10294L49.4986 11.3817C48.8693 12.011 48.8693 13.0311 49.4986 13.6604C50.1277 14.2897 51.148 14.2897 51.7773 13.6604L54.0561 11.3817C54.6853 10.7524 54.6853 9.73222 54.0561 9.10294Z" fill="#6A4DFF" fill-opacity="1"/>
<path d="M54.0561 30.7176L51.7774 28.4389C51.1483 27.8096 50.128 27.8096 49.4986 28.4389C48.8692 29.0682 48.8693 30.0883 49.4986 30.7176L51.7774 32.9964C52.4064 33.6256 53.4268 33.6256 54.0561 32.9964C54.6854 32.3671 54.6854 31.3469 54.0561 30.7176Z" fill="#6A4DFF" fill-opacity="1"/>
</g>
<defs>
<clipPath id="clip0_15_1189">
<rect width="55" height="55" fill="#6A4DFF"/>
</clipPath>
</defs>
</svg>
