<svg xmlns="http://www.w3.org/2000/svg" xmlns:xlink="http://www.w3.org/1999/xlink" width="498" zoomAndPan="magnify" viewBox="0 0 373.5 106.499997" height="142" preserveAspectRatio="xMidYMid meet" version="1.0"><defs><g/><clipPath id="f4b443d1f8"><path d="M 1 0.46875 L 92 0.46875 L 92 91 L 1 91 Z M 1 0.46875 " clip-rule="nonzero"/></clipPath></defs><g clip-path="url(#f4b443d1f8)"><path fill="#6a4dff" d="M 46.421875 0.347656 C 44.9375 0.347656 43.457031 0.421875 41.980469 0.566406 C 40.503906 0.710938 39.039062 0.929688 37.582031 1.21875 C 36.125 1.507812 34.6875 1.867188 33.269531 2.296875 C 31.847656 2.730469 30.453125 3.230469 29.082031 3.796875 C 27.710938 4.363281 26.371094 5 25.0625 5.699219 C 23.753906 6.398438 22.484375 7.160156 21.25 7.984375 C 20.015625 8.808594 18.824219 9.691406 17.679688 10.632812 C 16.53125 11.574219 15.433594 12.570312 14.382812 13.617188 C 13.335938 14.667969 12.339844 15.765625 11.398438 16.914062 C 10.457031 18.058594 9.574219 19.25 8.75 20.484375 C 7.925781 21.71875 7.164062 22.988281 6.464844 24.296875 C 5.765625 25.605469 5.132812 26.945312 4.5625 28.316406 C 3.996094 29.6875 3.496094 31.082031 3.066406 32.503906 C 2.636719 33.921875 2.273438 35.359375 1.984375 36.816406 C 1.695312 38.269531 1.476562 39.738281 1.332031 41.214844 C 1.1875 42.691406 1.113281 44.171875 1.113281 45.652344 C 3.5 105.75 89.351562 105.734375 91.726562 45.652344 C 91.726562 44.167969 91.65625 42.691406 91.507812 41.214844 C 91.363281 39.734375 91.144531 38.269531 90.855469 36.816406 C 90.566406 35.359375 90.207031 33.921875 89.777344 32.503906 C 89.34375 31.082031 88.847656 29.6875 88.277344 28.316406 C 87.710938 26.945312 87.078125 25.605469 86.378906 24.296875 C 85.679688 22.988281 84.917969 21.71875 84.089844 20.484375 C 83.265625 19.25 82.382812 18.058594 81.441406 16.910156 C 80.5 15.765625 79.507812 14.667969 78.457031 13.617188 C 77.40625 12.570312 76.308594 11.574219 75.164062 10.632812 C 74.015625 9.691406 72.824219 8.808594 71.589844 7.984375 C 70.359375 7.160156 69.085938 6.398438 67.777344 5.699219 C 66.46875 5 65.128906 4.363281 63.757812 3.796875 C 62.386719 3.230469 60.992188 2.730469 59.574219 2.296875 C 58.152344 1.867188 56.714844 1.507812 55.261719 1.21875 C 53.804688 0.929688 52.339844 0.710938 50.863281 0.566406 C 49.386719 0.421875 47.90625 0.347656 46.421875 0.347656 Z M 55.089844 21.714844 C 55.289062 21.519531 55.503906 21.34375 55.734375 21.1875 C 55.96875 21.035156 56.214844 20.90625 56.472656 20.800781 C 56.730469 20.691406 56.996094 20.613281 57.269531 20.558594 C 57.546875 20.503906 57.820312 20.476562 58.101562 20.476562 C 58.378906 20.476562 58.65625 20.503906 58.929688 20.558594 C 59.203125 20.613281 59.46875 20.691406 59.730469 20.800781 C 59.988281 20.90625 60.234375 21.035156 60.464844 21.1875 C 60.699219 21.34375 60.914062 21.519531 61.113281 21.714844 L 65.121094 25.722656 C 65.355469 25.988281 65.558594 26.277344 65.726562 26.589844 C 65.898438 26.902344 66.03125 27.226562 66.128906 27.570312 C 66.226562 27.910156 66.285156 28.257812 66.304688 28.613281 C 66.320312 28.96875 66.300781 29.320312 66.242188 29.671875 C 66.179688 30.023438 66.082031 30.363281 65.949219 30.691406 C 65.8125 31.019531 65.640625 31.328125 65.4375 31.617188 C 65.230469 31.90625 64.996094 32.171875 64.730469 32.410156 C 64.46875 32.644531 64.179688 32.851562 63.871094 33.023438 C 63.386719 33.449219 62.875 33.679688 62.390625 33.195312 L 53.667969 24.441406 C 52.636719 23.507812 54.621094 22.355469 55.089844 21.714844 Z M 31.171875 45.632812 L 50.34375 26.460938 C 50.527344 26.277344 50.746094 26.1875 51 26.1875 C 51.257812 26.1875 51.476562 26.277344 51.65625 26.460938 L 60.394531 35.199219 C 60.574219 35.378906 60.664062 35.597656 60.664062 35.855469 C 60.664062 36.109375 60.574219 36.328125 60.394531 36.507812 L 41.21875 55.679688 C 41.117188 55.78125 40.992188 55.832031 40.847656 55.832031 C 40.703125 55.832031 40.578125 55.78125 40.472656 55.679688 L 31.171875 46.378906 C 31.070312 46.277344 31.019531 46.152344 31.019531 46.007812 C 31.019531 45.859375 31.070312 45.734375 31.171875 45.632812 Z M 28.566406 48.523438 C 28.601562 48.394531 28.6875 48.3125 28.820312 48.28125 C 28.949219 48.25 29.0625 48.28125 29.15625 48.378906 L 38.472656 57.695312 C 38.515625 57.738281 38.546875 57.789062 38.5625 57.847656 C 38.582031 57.90625 38.582031 57.96875 38.570312 58.027344 C 38.554688 58.085938 38.527344 58.140625 38.484375 58.183594 C 38.441406 58.230469 38.394531 58.261719 38.332031 58.28125 C 36.253906 58.941406 28.332031 60.292969 27.878906 60.410156 C 27.667969 60.410156 27.464844 60.363281 27.273438 60.269531 C 27.082031 60.179688 26.917969 60.050781 26.785156 59.886719 C 26.652344 59.722656 26.558594 59.539062 26.503906 59.332031 C 26.453125 59.125 26.445312 58.917969 26.488281 58.710938 C 26.644531 58.234375 28.003906 50.640625 28.566406 48.523438 Z M 66.511719 70.832031 C 64.96875 70.847656 63.472656 70.585938 62.027344 70.046875 C 60.582031 69.503906 59.277344 68.726562 58.121094 67.703125 C 57.664062 67.300781 57.171875 66.941406 56.648438 66.625 C 56.125 66.308594 55.578125 66.046875 55.007812 65.828125 C 54.4375 65.613281 53.851562 65.449219 53.25 65.339844 C 52.648438 65.230469 52.042969 65.175781 51.433594 65.175781 C 50.824219 65.175781 50.21875 65.230469 49.617188 65.339844 C 49.015625 65.449219 48.429688 65.613281 47.859375 65.828125 C 47.289062 66.046875 46.742188 66.308594 46.21875 66.625 C 45.695312 66.941406 45.207031 67.300781 44.746094 67.703125 C 44.164062 68.195312 43.546875 68.636719 42.886719 69.019531 C 42.226562 69.40625 41.539062 69.730469 40.824219 69.992188 C 40.105469 70.257812 39.375 70.453125 38.621094 70.589844 C 37.871094 70.722656 37.113281 70.789062 36.351562 70.789062 C 35.585938 70.789062 34.828125 70.722656 34.078125 70.589844 C 33.328125 70.453125 32.59375 70.257812 31.875 69.992188 C 31.160156 69.730469 30.472656 69.40625 29.8125 69.019531 C 29.152344 68.636719 28.535156 68.195312 27.953125 67.703125 C 27.230469 67.125 26.464844 66.609375 25.660156 66.15625 C 25.496094 66.066406 25.359375 65.949219 25.242188 65.800781 C 25.125 65.65625 25.042969 65.496094 24.988281 65.316406 C 24.9375 65.136719 24.921875 64.957031 24.941406 64.769531 C 24.960938 64.585938 25.011719 64.410156 25.101562 64.246094 C 25.1875 64.082031 25.300781 63.941406 25.445312 63.824219 C 25.589844 63.703125 25.75 63.617188 25.925781 63.558594 C 26.105469 63.503906 26.285156 63.484375 26.46875 63.5 C 26.65625 63.515625 26.832031 63.5625 26.996094 63.648438 C 30.378906 65.480469 31.636719 68.007812 36.351562 67.988281 C 37.585938 68.003906 38.78125 67.789062 39.9375 67.347656 C 41.09375 66.90625 42.125 66.269531 43.039062 65.433594 C 43.621094 64.9375 44.238281 64.5 44.898438 64.113281 C 45.558594 63.730469 46.246094 63.40625 46.960938 63.140625 C 47.675781 62.878906 48.410156 62.679688 49.164062 62.546875 C 49.914062 62.414062 50.671875 62.347656 51.433594 62.347656 C 52.199219 62.347656 52.953125 62.414062 53.707031 62.546875 C 54.457031 62.679688 55.191406 62.878906 55.90625 63.140625 C 56.625 63.40625 57.3125 63.730469 57.96875 64.113281 C 58.628906 64.5 59.25 64.9375 59.832031 65.433594 C 60.742188 66.269531 61.773438 66.90625 62.929688 67.347656 C 64.082031 67.789062 65.277344 68.003906 66.511719 67.988281 C 66.699219 67.992188 66.878906 68.03125 67.050781 68.101562 C 67.222656 68.175781 67.371094 68.28125 67.503906 68.414062 C 67.632812 68.546875 67.734375 68.699219 67.804688 68.871094 C 67.875 69.042969 67.910156 69.222656 67.910156 69.410156 C 67.910156 69.59375 67.875 69.773438 67.804688 69.945312 C 67.734375 70.121094 67.632812 70.273438 67.503906 70.40625 C 67.371094 70.539062 67.222656 70.640625 67.050781 70.714844 C 66.878906 70.789062 66.699219 70.828125 66.511719 70.832031 Z M 66.511719 70.832031 " fill-opacity="1" fill-rule="nonzero"/></g><g fill="#6a4dff" fill-opacity="1"><g transform="translate(93.804982, 65.784612)"><g><path d="M 33.078125 0 L 25.8125 0 L 22.96875 -7.453125 L 9.796875 -7.453125 L 7.09375 0 L 0 0 L 12.84375 -32.953125 L 19.875 -32.953125 Z M 11.828125 -13.015625 L 20.84375 -13.015625 L 16.296875 -25.265625 Z M 11.828125 -13.015625 "/></g></g></g><g fill="#6a4dff" fill-opacity="1"><g transform="translate(127.021909, 65.784612)"><g><path d="M 9.75 0 L 3.125 0 L 3.125 -32.953125 L 9.75 -32.953125 Z M 9.75 0 "/></g></g></g><g fill="#000000" fill-opacity="1"><g transform="translate(139.811869, 65.784612)"><g><path d="M 9.984375 -19.96875 L 23.015625 -19.96875 L 23.015625 -32.953125 L 29.640625 -32.953125 L 29.640625 0 L 23.015625 0 L 23.015625 -14.40625 L 9.984375 -14.40625 L 9.984375 0 L 3.359375 0 L 3.359375 -32.953125 L 9.984375 -32.953125 Z M 9.984375 -19.96875 "/></g></g></g><g fill="#000000" fill-opacity="1"><g transform="translate(173.028796, 65.784612)"><g><path d="M 9.484375 -11.59375 C 9.484375 -9.90625 9.519531 -8.675781 9.59375 -7.90625 C 9.664062 -7.144531 9.828125 -6.535156 10.078125 -6.078125 C 10.347656 -5.554688 10.765625 -5.125 11.328125 -4.78125 C 11.898438 -4.445312 12.601562 -4.28125 13.4375 -4.28125 C 14.539062 -4.28125 15.535156 -4.585938 16.421875 -5.203125 C 17.316406 -5.816406 17.882812 -6.566406 18.125 -7.453125 C 18.40625 -8.335938 18.546875 -10.238281 18.546875 -13.15625 L 18.546875 -23.84375 L 24.84375 -23.84375 L 24.84375 0 L 19 0 L 19 -3.59375 L 18.90625 -3.59375 C 18.019531 -2.238281 16.867188 -1.207031 15.453125 -0.5 C 14.046875 0.195312 12.59375 0.546875 11.09375 0.546875 C 9.738281 0.546875 8.457031 0.269531 7.25 -0.28125 C 6.039062 -0.832031 5.113281 -1.628906 4.46875 -2.671875 C 4 -3.398438 3.664062 -4.207031 3.46875 -5.09375 C 3.269531 -5.988281 3.171875 -7.113281 3.171875 -8.46875 L 3.171875 -23.84375 L 9.484375 -23.84375 Z M 9.484375 -11.59375 "/></g></g></g><g fill="#000000" fill-opacity="1"><g transform="translate(201.138964, 65.784612)"><g><path d="M 16.109375 -24.390625 C 19.203125 -24.390625 21.457031 -23.128906 22.875 -20.609375 C 24.925781 -23.128906 27.347656 -24.390625 30.140625 -24.390625 C 32.773438 -24.390625 34.738281 -23.664062 36.03125 -22.21875 C 37.320312 -20.78125 37.96875 -18.617188 37.96875 -15.734375 L 37.96875 0 L 31.65625 0 L 31.65625 -14.265625 C 31.65625 -15.984375 31.429688 -17.296875 30.984375 -18.203125 C 30.546875 -19.109375 29.648438 -19.5625 28.296875 -19.5625 C 27.003906 -19.5625 25.96875 -19.113281 25.1875 -18.21875 C 24.40625 -17.332031 23.925781 -16.179688 23.75 -14.765625 C 23.625 -13.660156 23.5625 -12.679688 23.5625 -11.828125 L 23.5625 0 L 17.25 0 L 17.25 -14.03125 C 17.25 -15.96875 17.039062 -17.375 16.625 -18.25 C 16.21875 -19.125 15.335938 -19.5625 13.984375 -19.5625 C 13.003906 -19.5625 12.125 -19.296875 11.34375 -18.765625 C 10.5625 -18.242188 10.015625 -17.523438 9.703125 -16.609375 C 9.335938 -15.503906 9.15625 -13.957031 9.15625 -11.96875 L 9.15625 0 L 2.859375 0 L 2.859375 -23.84375 L 8.703125 -23.84375 L 8.78125 -20.609375 C 9.769531 -21.804688 10.804688 -22.734375 11.890625 -23.390625 C 12.984375 -24.054688 14.390625 -24.390625 16.109375 -24.390625 Z M 16.109375 -24.390625 "/></g></g></g><g fill="#000000" fill-opacity="1"><g transform="translate(242.039033, 65.784612)"><g><path d="M 12.609375 -24.390625 C 15.640625 -24.390625 17.890625 -24 19.359375 -23.21875 C 20.835938 -22.4375 21.769531 -21.40625 22.15625 -20.125 C 22.539062 -18.851562 22.71875 -17.175781 22.6875 -15.09375 L 22.640625 -8.140625 C 22.609375 -5.960938 22.679688 -4.382812 22.859375 -3.40625 C 23.046875 -2.425781 23.429688 -1.289062 24.015625 0 L 17.8125 0 C 17.65625 -0.332031 17.378906 -1.207031 16.984375 -2.625 C 15.847656 -1.519531 14.671875 -0.710938 13.453125 -0.203125 C 12.242188 0.296875 10.953125 0.546875 9.578125 0.546875 C 7.210938 0.546875 5.300781 -0.101562 3.84375 -1.40625 C 2.382812 -2.707031 1.65625 -4.398438 1.65625 -6.484375 C 1.65625 -8.234375 2.09375 -9.617188 2.96875 -10.640625 C 3.84375 -11.671875 4.90625 -12.414062 6.15625 -12.875 C 7.414062 -13.34375 8.90625 -13.742188 10.625 -14.078125 C 13.269531 -14.566406 15.21875 -15.054688 16.46875 -15.546875 L 16.46875 -16.5625 C 16.46875 -17.601562 16.160156 -18.363281 15.546875 -18.84375 C 14.941406 -19.320312 13.820312 -19.5625 12.1875 -19.5625 C 10.9375 -19.5625 10.003906 -19.304688 9.390625 -18.796875 C 8.773438 -18.285156 8.3125 -17.539062 8 -16.5625 L 2.296875 -17.625 C 2.910156 -19.957031 4.015625 -21.664062 5.609375 -22.75 C 7.203125 -23.84375 9.535156 -24.390625 12.609375 -24.390625 Z M 12.515625 -10.453125 L 11.453125 -10.21875 C 9.117188 -9.726562 7.953125 -8.710938 7.953125 -7.171875 C 7.953125 -6.253906 8.28125 -5.476562 8.9375 -4.84375 C 9.601562 -4.21875 10.441406 -3.90625 11.453125 -3.90625 C 12.285156 -3.90625 13.113281 -4.117188 13.9375 -4.546875 C 14.769531 -4.984375 15.414062 -5.554688 15.875 -6.265625 C 16.269531 -6.898438 16.46875 -8.003906 16.46875 -9.578125 L 16.46875 -11.453125 C 15.269531 -11.085938 13.953125 -10.753906 12.515625 -10.453125 Z M 12.515625 -10.453125 "/></g></g></g><g fill="#000000" fill-opacity="1"><g transform="translate(267.618825, 65.784612)"><g><path d="M 17.03125 -24.390625 C 18.4375 -24.390625 19.660156 -24.148438 20.703125 -23.671875 C 21.742188 -23.203125 22.570312 -22.644531 23.1875 -22 C 23.925781 -21.195312 24.410156 -20.25 24.640625 -19.15625 C 24.867188 -18.070312 24.984375 -16.867188 24.984375 -15.546875 L 24.984375 0 L 18.6875 0 L 18.6875 -13.015625 C 18.6875 -15.222656 18.4375 -16.863281 17.9375 -17.9375 C 17.445312 -19.019531 16.40625 -19.5625 14.8125 -19.5625 C 13.3125 -19.5625 12.144531 -19.128906 11.3125 -18.265625 C 10.488281 -17.410156 10 -16.414062 9.84375 -15.28125 C 9.75 -14.539062 9.679688 -13.878906 9.640625 -13.296875 C 9.597656 -12.710938 9.578125 -12.050781 9.578125 -11.3125 L 9.578125 0 L 3.265625 0 L 3.265625 -23.84375 L 9.25 -23.84375 L 9.25 -20.34375 C 9.925781 -21.351562 10.929688 -22.28125 12.265625 -23.125 C 13.597656 -23.96875 15.1875 -24.390625 17.03125 -24.390625 Z M 17.03125 -24.390625 "/></g></g></g><g fill="#000000" fill-opacity="1"><g transform="translate(295.728993, 65.784612)"><g><path d="M 9.625 -27.109375 L 3.3125 -27.109375 L 3.3125 -32.953125 L 9.625 -32.953125 Z M 9.625 0 L 3.3125 0 L 3.3125 -23.84375 L 9.625 -23.84375 Z M 9.625 0 "/></g></g></g><g fill="#000000" fill-opacity="1"><g transform="translate(308.518895, 65.784612)"><g><path d="M 21.34375 -19.375 L 12.28125 -8.921875 L 11.1875 -7.734375 C 9.894531 -6.347656 9.171875 -5.566406 9.015625 -5.390625 C 9.359375 -5.390625 9.863281 -5.414062 10.53125 -5.46875 L 12.1875 -5.5625 L 22.09375 -5.5625 L 22.09375 0 L 0.78125 0 L 0.78125 -4.921875 L 11.09375 -16.75 C 11.675781 -17.425781 12.300781 -18.101562 12.96875 -18.78125 C 11.71875 -18.65625 10.863281 -18.59375 10.40625 -18.59375 L 1.65625 -18.59375 L 1.65625 -23.84375 L 21.34375 -23.84375 Z M 21.34375 -19.375 "/></g></g></g><g fill="#000000" fill-opacity="1"><g transform="translate(331.522304, 65.784612)"><g><path d="M 12.421875 -24.390625 C 16.222656 -24.390625 19.0625 -23.15625 20.9375 -20.6875 C 22.8125 -18.21875 23.75 -14.695312 23.75 -10.125 L 7.921875 -10.125 C 7.972656 -8.53125 8.4375 -7.15625 9.3125 -6 C 10.1875 -4.851562 11.453125 -4.28125 13.109375 -4.28125 C 14.148438 -4.28125 15 -4.546875 15.65625 -5.078125 C 16.320312 -5.617188 16.8125 -6.457031 17.125 -7.59375 L 23.421875 -6.53125 C 22.617188 -4.195312 21.328125 -2.429688 19.546875 -1.234375 C 17.773438 -0.046875 15.597656 0.546875 13.015625 0.546875 C 9.179688 0.546875 6.285156 -0.601562 4.328125 -2.90625 C 3.398438 -3.976562 2.691406 -5.328125 2.203125 -6.953125 C 1.710938 -8.578125 1.46875 -10.1875 1.46875 -11.78125 C 1.46875 -13.957031 1.859375 -16.003906 2.640625 -17.921875 C 3.421875 -19.835938 4.632812 -21.394531 6.28125 -22.59375 C 7.925781 -23.789062 9.972656 -24.390625 12.421875 -24.390625 Z M 8.046875 -13.984375 L 17.484375 -13.984375 C 17.453125 -15.921875 16.96875 -17.332031 16.03125 -18.21875 C 15.101562 -19.113281 14.007812 -19.5625 12.75 -19.5625 C 11.269531 -19.5625 10.113281 -19.03125 9.28125 -17.96875 C 8.457031 -16.90625 8.046875 -15.578125 8.046875 -13.984375 Z M 8.046875 -13.984375 "/></g></g></g></svg>