<svg xmlns="http://www.w3.org/2000/svg" xmlns:xlink="http://www.w3.org/1999/xlink" width="3590" zoomAndPan="magnify" viewBox="0 0 2692.5 572.249966" height="763" preserveAspectRatio="xMidYMid meet" version="1.0"><defs><g/><clipPath id="01e8faf64f"><path d="M 2 3.800781 L 490 3.800781 L 490 490 L 2 490 Z M 2 3.800781 " clip-rule="nonzero"/></clipPath></defs><g clip-path="url(#01e8faf64f)"><path fill="#6a4dff" d="M 246.207031 3.148438 C 242.21875 3.148438 238.234375 3.246094 234.25 3.441406 C 230.269531 3.636719 226.292969 3.929688 222.324219 4.320312 C 218.355469 4.710938 214.402344 5.199219 210.457031 5.785156 C 206.511719 6.367188 202.585938 7.050781 198.675781 7.828125 C 194.765625 8.605469 190.875 9.480469 187.007812 10.449219 C 183.140625 11.417969 179.296875 12.480469 175.480469 13.636719 C 171.667969 14.796875 167.882812 16.046875 164.128906 17.390625 C 160.371094 18.730469 156.652344 20.167969 152.96875 21.691406 C 149.285156 23.21875 145.640625 24.832031 142.039062 26.539062 C 138.433594 28.242188 134.871094 30.035156 131.355469 31.914062 C 127.839844 33.792969 124.371094 35.757812 120.953125 37.808594 C 117.53125 39.859375 114.164062 41.992188 110.847656 44.207031 C 107.535156 46.421875 104.273438 48.71875 101.070312 51.09375 C 97.871094 53.46875 94.726562 55.921875 91.644531 58.449219 C 88.5625 60.980469 85.542969 63.582031 82.589844 66.261719 C 79.636719 68.9375 76.75 71.6875 73.929688 74.507812 C 71.109375 77.324219 68.359375 80.210938 65.683594 83.167969 C 63.003906 86.121094 60.402344 89.140625 57.871094 92.222656 C 55.34375 95.304688 52.890625 98.445312 50.515625 101.648438 C 48.140625 104.851562 45.84375 108.109375 43.628906 111.425781 C 41.414062 114.742188 39.28125 118.109375 37.230469 121.527344 C 35.183594 124.949219 33.21875 128.417969 31.335938 131.933594 C 29.457031 135.449219 27.667969 139.011719 25.960938 142.617188 C 24.257812 146.21875 22.640625 149.863281 21.117188 153.546875 C 19.589844 157.230469 18.15625 160.949219 16.8125 164.703125 C 15.46875 168.457031 14.21875 172.242188 13.058594 176.058594 C 11.902344 179.875 10.839844 183.714844 9.871094 187.585938 C 8.902344 191.453125 8.027344 195.339844 7.25 199.253906 C 6.472656 203.164062 5.792969 207.089844 5.207031 211.035156 C 4.621094 214.976562 4.132812 218.933594 3.742188 222.902344 C 3.351562 226.871094 3.058594 230.847656 2.863281 234.828125 C 2.667969 238.8125 2.570312 242.796875 2.570312 246.78125 C 15.402344 569.960938 477.058594 569.871094 489.84375 246.78125 C 489.84375 242.792969 489.746094 238.808594 489.550781 234.828125 C 489.355469 230.84375 489.058594 226.867188 488.667969 222.902344 C 488.277344 218.933594 487.789062 214.976562 487.207031 211.03125 C 486.621094 207.089844 485.9375 203.160156 485.160156 199.25 C 484.382812 195.339844 483.507812 191.449219 482.539062 187.582031 C 481.570312 183.714844 480.507812 179.875 479.351562 176.058594 C 478.195312 172.242188 476.941406 168.457031 475.601562 164.703125 C 474.257812 160.949219 472.820312 157.230469 471.296875 153.546875 C 469.769531 149.863281 468.15625 146.21875 466.449219 142.613281 C 464.746094 139.007812 462.953125 135.449219 461.074219 131.933594 C 459.195312 128.417969 457.230469 124.949219 455.179688 121.527344 C 453.128906 118.109375 450.996094 114.742188 448.78125 111.425781 C 446.566406 108.109375 444.269531 104.851562 441.894531 101.648438 C 439.519531 98.445312 437.066406 95.304688 434.539062 92.222656 C 432.007812 89.140625 429.40625 86.121094 426.726562 83.167969 C 424.050781 80.210938 421.300781 77.324219 418.480469 74.503906 C 415.664062 71.6875 412.777344 68.9375 409.820312 66.261719 C 406.867188 63.582031 403.847656 60.980469 400.765625 58.449219 C 397.683594 55.917969 394.542969 53.46875 391.339844 51.09375 C 388.136719 48.71875 384.878906 46.421875 381.5625 44.207031 C 378.246094 41.992188 374.878906 39.859375 371.460938 37.808594 C 368.039062 35.757812 364.570312 33.792969 361.054688 31.914062 C 357.539062 30.035156 353.976562 28.242188 350.375 26.539062 C 346.769531 24.832031 343.125 23.21875 339.441406 21.691406 C 335.757812 20.167969 332.039062 18.730469 328.285156 17.390625 C 324.53125 16.046875 320.746094 14.796875 316.929688 13.636719 C 313.113281 12.480469 309.273438 11.417969 305.40625 10.449219 C 301.535156 9.480469 297.648438 8.605469 293.738281 7.828125 C 289.824219 7.050781 285.898438 6.367188 281.953125 5.785156 C 278.011719 5.199219 274.054688 4.710938 270.085938 4.320312 C 266.117188 3.929688 262.144531 3.636719 258.160156 3.441406 C 254.179688 3.246094 250.191406 3.148438 246.207031 3.148438 Z M 292.816406 118.046875 C 293.347656 117.519531 293.90625 117.019531 294.488281 116.546875 C 295.070312 116.078125 295.671875 115.632812 296.296875 115.222656 C 296.921875 114.808594 297.566406 114.425781 298.226562 114.074219 C 298.890625 113.726562 299.566406 113.40625 300.257812 113.125 C 300.953125 112.839844 301.65625 112.589844 302.375 112.375 C 303.09375 112.15625 303.816406 111.976562 304.554688 111.832031 C 305.289062 111.6875 306.027344 111.578125 306.773438 111.507812 C 307.519531 111.433594 308.265625 111.398438 309.015625 111.398438 C 309.761719 111.398438 310.511719 111.433594 311.257812 111.507812 C 312 111.578125 312.742188 111.6875 313.476562 111.832031 C 314.210938 111.976562 314.9375 112.15625 315.65625 112.375 C 316.371094 112.589844 317.078125 112.839844 317.769531 113.125 C 318.460938 113.40625 319.140625 113.726562 319.800781 114.074219 C 320.464844 114.425781 321.105469 114.808594 321.730469 115.222656 C 322.355469 115.632812 322.960938 116.078125 323.542969 116.546875 C 324.125 117.019531 324.679688 117.519531 325.214844 118.046875 L 346.761719 139.59375 C 347.390625 140.308594 347.980469 141.054688 348.527344 141.835938 C 349.070312 142.613281 349.574219 143.421875 350.03125 144.257812 C 350.484375 145.09375 350.894531 145.953125 351.253906 146.835938 C 351.613281 147.714844 351.925781 148.617188 352.183594 149.53125 C 352.445312 150.449219 352.652344 151.375 352.808594 152.316406 C 352.964844 153.253906 353.070312 154.199219 353.121094 155.152344 C 353.171875 156.101562 353.171875 157.054688 353.113281 158.003906 C 353.058594 158.953125 352.953125 159.898438 352.789062 160.839844 C 352.628906 161.777344 352.417969 162.703125 352.152344 163.617188 C 351.890625 164.535156 351.574219 165.429688 351.210938 166.3125 C 350.847656 167.191406 350.433594 168.046875 349.972656 168.882812 C 349.515625 169.714844 349.007812 170.523438 348.460938 171.300781 C 347.910156 172.078125 347.316406 172.820312 346.683594 173.535156 C 346.050781 174.246094 345.378906 174.917969 344.671875 175.554688 C 343.964844 176.191406 343.222656 176.789062 342.449219 177.339844 C 341.671875 177.894531 340.871094 178.402344 340.039062 178.867188 C 337.441406 181.160156 334.6875 182.382812 332.089844 179.785156 L 285.175781 132.714844 C 279.640625 127.691406 290.308594 121.492188 292.816406 118.046875 Z M 164.210938 246.667969 L 267.308594 143.566406 C 267.542969 143.335938 267.792969 143.128906 268.066406 142.945312 C 268.335938 142.765625 268.625 142.609375 268.925781 142.484375 C 269.230469 142.359375 269.539062 142.265625 269.859375 142.203125 C 270.183594 142.136719 270.507812 142.105469 270.832031 142.105469 C 271.160156 142.105469 271.484375 142.140625 271.804688 142.203125 C 272.125 142.265625 272.4375 142.359375 272.738281 142.484375 C 273.042969 142.613281 273.328125 142.765625 273.601562 142.945312 C 273.875 143.128906 274.125 143.335938 274.355469 143.566406 L 321.339844 190.558594 C 321.570312 190.789062 321.777344 191.042969 321.960938 191.316406 C 322.140625 191.585938 322.292969 191.875 322.417969 192.175781 C 322.542969 192.476562 322.640625 192.789062 322.703125 193.109375 C 322.765625 193.429688 322.796875 193.753906 322.796875 194.082031 C 322.796875 194.410156 322.765625 194.734375 322.703125 195.054688 C 322.636719 195.375 322.542969 195.6875 322.417969 195.988281 C 322.292969 196.289062 322.140625 196.578125 321.957031 196.851562 C 321.777344 197.121094 321.570312 197.375 321.339844 197.605469 L 218.242188 300.691406 C 217.972656 300.957031 217.667969 301.164062 217.320312 301.308594 C 216.972656 301.453125 216.609375 301.523438 216.230469 301.523438 C 215.855469 301.523438 215.492188 301.453125 215.144531 301.308594 C 214.796875 301.164062 214.488281 300.957031 214.222656 300.691406 L 164.210938 250.683594 C 163.941406 250.417969 163.738281 250.109375 163.59375 249.761719 C 163.449219 249.414062 163.378906 249.050781 163.378906 248.675781 C 163.378906 248.296875 163.449219 247.9375 163.59375 247.589844 C 163.738281 247.238281 163.945312 246.933594 164.210938 246.667969 Z M 150.195312 262.222656 C 150.285156 261.898438 150.453125 261.617188 150.695312 261.382812 C 150.9375 261.148438 151.222656 260.988281 151.550781 260.910156 C 151.878906 260.828125 152.203125 260.835938 152.527344 260.929688 C 152.851562 261.027344 153.128906 261.199219 153.359375 261.441406 L 203.453125 311.535156 C 203.574219 311.648438 203.671875 311.773438 203.757812 311.914062 C 203.84375 312.054688 203.910156 312.199219 203.953125 312.359375 C 204 312.515625 204.027344 312.675781 204.03125 312.835938 C 204.035156 313 204.019531 313.160156 203.980469 313.320312 C 203.945312 313.480469 203.886719 313.628906 203.8125 313.773438 C 203.734375 313.917969 203.640625 314.050781 203.53125 314.171875 C 203.417969 314.289062 203.292969 314.394531 203.15625 314.480469 C 203.019531 314.570312 202.871094 314.636719 202.714844 314.6875 C 191.539062 318.242188 148.933594 325.503906 146.5 326.144531 C 145.9375 326.140625 145.378906 326.074219 144.832031 325.945312 C 144.28125 325.816406 143.753906 325.632812 143.242188 325.390625 C 142.734375 325.144531 142.257812 324.847656 141.816406 324.5 C 141.371094 324.152344 140.972656 323.757812 140.613281 323.324219 C 140.257812 322.886719 139.949219 322.417969 139.695312 321.914062 C 139.441406 321.410156 139.246094 320.886719 139.105469 320.339844 C 138.96875 319.792969 138.890625 319.238281 138.875 318.671875 C 138.855469 318.109375 138.902344 317.550781 139.007812 316.996094 C 139.859375 314.429688 147.15625 273.59375 150.195312 262.222656 Z M 354.253906 382.167969 C 350.136719 382.210938 346.050781 381.878906 341.996094 381.167969 C 337.941406 380.457031 333.984375 379.382812 330.128906 377.945312 C 326.269531 376.507812 322.578125 374.730469 319.046875 372.613281 C 315.515625 370.496094 312.207031 368.074219 309.125 365.351562 C 307.894531 364.265625 306.621094 363.242188 305.296875 362.273438 C 303.976562 361.304688 302.613281 360.402344 301.210938 359.554688 C 299.804688 358.710938 298.367188 357.933594 296.894531 357.21875 C 295.421875 356.503906 293.917969 355.855469 292.382812 355.277344 C 290.851562 354.699219 289.296875 354.191406 287.71875 353.75 C 286.140625 353.3125 284.546875 352.949219 282.933594 352.652344 C 281.320312 352.359375 279.699219 352.136719 278.070312 351.992188 C 276.4375 351.84375 274.804688 351.769531 273.164062 351.769531 C 271.527344 351.769531 269.894531 351.84375 268.261719 351.992188 C 266.628906 352.136719 265.007812 352.359375 263.398438 352.652344 C 261.785156 352.949219 260.191406 353.3125 258.613281 353.75 C 257.035156 354.191406 255.480469 354.699219 253.945312 355.277344 C 252.414062 355.855469 250.910156 356.503906 249.4375 357.21875 C 247.960938 357.933594 246.523438 358.710938 245.121094 359.554688 C 243.71875 360.402344 242.355469 361.304688 241.03125 362.273438 C 239.710938 363.242188 238.4375 364.265625 237.207031 365.351562 C 235.644531 366.675781 234.03125 367.929688 232.359375 369.113281 C 230.6875 370.300781 228.96875 371.40625 227.199219 372.441406 C 225.429688 373.472656 223.617188 374.425781 221.765625 375.296875 C 219.914062 376.171875 218.027344 376.960938 216.105469 377.667969 C 214.179688 378.371094 212.230469 378.992188 210.253906 379.527344 C 208.277344 380.0625 206.28125 380.507812 204.265625 380.867188 C 202.246094 381.226562 200.21875 381.496094 198.179688 381.675781 C 196.140625 381.855469 194.09375 381.945312 192.046875 381.945312 C 190 381.945312 187.953125 381.855469 185.914062 381.675781 C 183.875 381.496094 181.847656 381.226562 179.832031 380.867188 C 177.8125 380.507812 175.816406 380.0625 173.839844 379.527344 C 171.863281 378.992188 169.914062 378.371094 167.992188 377.667969 C 166.070312 376.960938 164.179688 376.171875 162.328125 375.296875 C 160.476562 374.425781 158.664062 373.472656 156.894531 372.441406 C 155.125 371.40625 153.40625 370.300781 151.734375 369.113281 C 150.066406 367.929688 148.449219 366.675781 146.886719 365.351562 C 143 362.25 138.890625 359.480469 134.5625 357.035156 C 134.128906 356.792969 133.726562 356.511719 133.347656 356.191406 C 132.96875 355.871094 132.625 355.515625 132.316406 355.128906 C 132.007812 354.742188 131.738281 354.328125 131.511719 353.890625 C 131.285156 353.449219 131.097656 352.992188 130.960938 352.515625 C 130.820312 352.042969 130.726562 351.558594 130.683594 351.0625 C 130.636719 350.570312 130.640625 350.078125 130.691406 349.585938 C 130.742188 349.089844 130.839844 348.609375 130.984375 348.132812 C 131.128906 347.660156 131.316406 347.207031 131.550781 346.769531 C 131.78125 346.332031 132.054688 345.921875 132.367188 345.535156 C 132.683594 345.152344 133.027344 344.800781 133.410156 344.484375 C 133.789062 344.167969 134.199219 343.890625 134.632812 343.652344 C 135.066406 343.417969 135.523438 343.222656 135.996094 343.074219 C 136.464844 342.925781 136.949219 342.824219 137.441406 342.765625 C 137.933594 342.710938 138.425781 342.703125 138.921875 342.746094 C 139.414062 342.785156 139.898438 342.871094 140.375 343.007812 C 140.851562 343.140625 141.3125 343.320312 141.753906 343.546875 C 159.929688 353.410156 166.699219 366.996094 192.046875 366.886719 C 195.34375 366.925781 198.613281 366.65625 201.855469 366.078125 C 205.101562 365.5 208.261719 364.625 211.34375 363.449219 C 214.421875 362.273438 217.363281 360.816406 220.164062 359.085938 C 222.96875 357.351562 225.585938 355.371094 228.011719 353.144531 C 229.574219 351.816406 231.1875 350.5625 232.859375 349.378906 C 234.53125 348.195312 236.25 347.085938 238.019531 346.054688 C 239.789062 345.019531 241.597656 344.070312 243.449219 343.195312 C 245.304688 342.324219 247.191406 341.535156 249.113281 340.828125 C 251.035156 340.121094 252.984375 339.5 254.960938 338.964844 C 256.9375 338.429688 258.933594 337.984375 260.949219 337.625 C 262.964844 337.265625 264.992188 336.996094 267.035156 336.816406 C 269.074219 336.636719 271.117188 336.546875 273.164062 336.546875 C 275.210938 336.546875 277.257812 336.636719 279.296875 336.816406 C 281.335938 336.996094 283.363281 337.265625 285.378906 337.625 C 287.394531 337.984375 289.394531 338.429688 291.371094 338.964844 C 293.347656 339.5 295.296875 340.121094 297.21875 340.824219 C 299.140625 341.53125 301.027344 342.320312 302.878906 343.195312 C 304.730469 344.066406 306.542969 345.019531 308.3125 346.050781 C 310.078125 347.085938 311.800781 348.191406 313.46875 349.375 C 315.140625 350.558594 316.757812 351.816406 318.316406 353.140625 C 320.742188 355.367188 323.355469 357.347656 326.15625 359.082031 C 328.957031 360.8125 331.894531 362.269531 334.972656 363.445312 C 338.046875 364.621094 341.207031 365.5 344.449219 366.078125 C 347.691406 366.65625 350.960938 366.925781 354.253906 366.886719 C 354.75 366.894531 355.238281 366.949219 355.726562 367.054688 C 356.210938 367.160156 356.679688 367.308594 357.136719 367.503906 C 357.59375 367.699219 358.027344 367.9375 358.433594 368.21875 C 358.84375 368.5 359.222656 368.816406 359.570312 369.171875 C 359.917969 369.523438 360.230469 369.90625 360.503906 370.324219 C 360.777344 370.738281 361.007812 371.171875 361.195312 371.632812 C 361.382812 372.09375 361.523438 372.566406 361.621094 373.050781 C 361.714844 373.539062 361.765625 374.03125 361.765625 374.527344 C 361.765625 375.023438 361.714844 375.515625 361.621094 376 C 361.523438 376.488281 361.382812 376.960938 361.195312 377.421875 C 361.007812 377.878906 360.777344 378.316406 360.503906 378.730469 C 360.230469 379.144531 359.921875 379.53125 359.574219 379.882812 C 359.226562 380.238281 358.847656 380.554688 358.4375 380.835938 C 358.027344 381.117188 357.59375 381.351562 357.136719 381.550781 C 356.683594 381.746094 356.210938 381.894531 355.726562 382 C 355.242188 382.105469 354.75 382.160156 354.253906 382.167969 Z M 354.253906 382.167969 " fill-opacity="1" fill-rule="nonzero"/></g><g fill="#6a4dff" fill-opacity="1"><g transform="translate(500.853635, 348.328282)"><g><path d="M 217.34375 0 L 169.578125 0 L 150.84375 -48.96875 L 64.390625 -48.96875 L 46.546875 0 L 0 0 L 84.34375 -216.4375 L 130.578125 -216.4375 Z M 77.6875 -85.546875 L 136.9375 -85.546875 L 107 -165.953125 Z M 77.6875 -85.546875 "/></g></g></g><g fill="#6a4dff" fill-opacity="1"><g transform="translate(719.105733, 348.328282)"><g><path d="M 64.078125 0 L 20.5625 0 L 20.5625 -216.4375 L 64.078125 -216.4375 Z M 64.078125 0 "/></g></g></g><g fill="#000000" fill-opacity="1"><g transform="translate(803.152718, 348.328282)"><g><path d="M 65.59375 -131.1875 L 151.140625 -131.1875 L 151.140625 -216.4375 L 194.671875 -216.4375 L 194.671875 0 L 151.140625 0 L 151.140625 -94.609375 L 65.59375 -94.609375 L 65.59375 0 L 22.0625 0 L 22.0625 -216.4375 L 65.59375 -216.4375 Z M 65.59375 -131.1875 "/></g></g></g><g fill="#000000" fill-opacity="1"><g transform="translate(1021.404816, 348.328282)"><g><path d="M 62.265625 -76.171875 C 62.265625 -65.085938 62.515625 -57.023438 63.015625 -51.984375 C 63.523438 -46.953125 64.585938 -42.925781 66.203125 -39.90625 C 68.015625 -36.476562 70.785156 -33.65625 74.515625 -31.4375 C 78.242188 -29.21875 82.828125 -28.109375 88.265625 -28.109375 C 95.515625 -28.109375 102.0625 -30.125 107.90625 -34.15625 C 113.757812 -38.1875 117.488281 -43.125 119.09375 -48.96875 C 120.90625 -54.8125 121.8125 -67.304688 121.8125 -86.453125 L 121.8125 -156.578125 L 163.234375 -156.578125 L 163.234375 0 L 124.84375 0 L 124.84375 -23.578125 L 124.234375 -23.578125 C 118.390625 -14.710938 110.832031 -7.960938 101.5625 -3.328125 C 92.289062 1.304688 82.71875 3.625 72.84375 3.625 C 63.976562 3.625 55.566406 1.8125 47.609375 -1.8125 C 39.648438 -5.4375 33.554688 -10.675781 29.328125 -17.53125 C 26.296875 -22.363281 24.125 -27.703125 22.8125 -33.546875 C 21.507812 -39.390625 20.859375 -46.75 20.859375 -55.625 L 20.859375 -156.578125 L 62.265625 -156.578125 Z M 62.265625 -76.171875 "/></g></g></g><g fill="#000000" fill-opacity="1"><g transform="translate(1206.102912, 348.328282)"><g><path d="M 105.796875 -160.203125 C 126.148438 -160.203125 140.960938 -151.941406 150.234375 -135.421875 C 163.734375 -151.941406 179.65625 -160.203125 198 -160.203125 C 215.320312 -160.203125 228.210938 -155.46875 236.671875 -146 C 245.140625 -136.53125 249.375 -122.320312 249.375 -103.375 L 249.375 0 L 207.96875 0 L 207.96875 -93.703125 C 207.96875 -104.992188 206.503906 -113.609375 203.578125 -119.546875 C 200.660156 -125.492188 194.769531 -128.46875 185.90625 -128.46875 C 177.4375 -128.46875 170.632812 -125.546875 165.5 -119.703125 C 160.363281 -113.859375 157.191406 -106.300781 155.984375 -97.03125 C 155.171875 -89.78125 154.765625 -83.332031 154.765625 -77.6875 L 154.765625 0 L 113.359375 0 L 113.359375 -92.203125 C 113.359375 -104.890625 111.992188 -114.101562 109.265625 -119.84375 C 106.546875 -125.59375 100.753906 -128.46875 91.890625 -128.46875 C 85.441406 -128.46875 79.644531 -126.753906 74.5 -123.328125 C 69.363281 -119.898438 65.789062 -115.164062 63.78125 -109.125 C 61.363281 -101.863281 60.15625 -91.6875 60.15625 -78.59375 L 60.15625 0 L 18.734375 0 L 18.734375 -156.578125 L 57.125 -156.578125 L 57.734375 -135.421875 C 64.179688 -143.273438 70.984375 -149.367188 78.140625 -153.703125 C 85.296875 -158.035156 94.515625 -160.203125 105.796875 -160.203125 Z M 105.796875 -160.203125 "/></g></g></g><g fill="#000000" fill-opacity="1"><g transform="translate(1474.837207, 348.328282)"><g><path d="M 82.828125 -160.203125 C 102.773438 -160.203125 117.582031 -157.632812 127.25 -152.5 C 136.925781 -147.363281 143.023438 -140.613281 145.546875 -132.25 C 148.066406 -123.882812 149.226562 -112.847656 149.03125 -99.140625 L 148.71875 -53.5 C 148.519531 -39.195312 149.023438 -28.820312 150.234375 -22.375 C 151.441406 -15.925781 153.960938 -8.46875 157.796875 0 L 116.984375 0 C 115.972656 -2.21875 114.160156 -7.960938 111.546875 -17.234375 C 104.085938 -9.972656 96.378906 -4.679688 88.421875 -1.359375 C 80.460938 1.960938 71.945312 3.625 62.875 3.625 C 47.351562 3.625 34.804688 -0.65625 25.234375 -9.21875 C 15.660156 -17.78125 10.875 -28.914062 10.875 -42.625 C 10.875 -54.113281 13.742188 -63.234375 19.484375 -69.984375 C 25.234375 -76.734375 32.238281 -81.617188 40.5 -84.640625 C 48.769531 -87.660156 58.546875 -90.28125 69.828125 -92.5 C 87.160156 -95.71875 99.957031 -98.941406 108.21875 -102.171875 L 108.21875 -108.828125 C 108.21875 -115.671875 106.203125 -120.65625 102.171875 -123.78125 C 98.140625 -126.90625 90.785156 -128.46875 80.109375 -128.46875 C 71.847656 -128.46875 65.703125 -126.804688 61.671875 -123.484375 C 57.640625 -120.160156 54.613281 -115.273438 52.59375 -108.828125 L 15.109375 -115.78125 C 19.140625 -131.09375 26.394531 -142.320312 36.875 -149.46875 C 47.351562 -156.625 62.671875 -160.203125 82.828125 -160.203125 Z M 82.21875 -68.625 L 75.265625 -67.109375 C 59.953125 -63.878906 52.296875 -57.226562 52.296875 -47.15625 C 52.296875 -41.113281 54.460938 -36.023438 58.796875 -31.890625 C 63.128906 -27.753906 68.617188 -25.6875 75.265625 -25.6875 C 80.703125 -25.6875 86.140625 -27.097656 91.578125 -29.921875 C 97.023438 -32.742188 101.257812 -36.472656 104.28125 -41.109375 C 106.90625 -45.335938 108.21875 -52.59375 108.21875 -62.875 L 108.21875 -75.265625 C 100.351562 -72.847656 91.6875 -70.632812 82.21875 -68.625 Z M 82.21875 -68.625 "/></g></g></g><g fill="#000000" fill-opacity="1"><g transform="translate(1642.909517, 348.328282)"><g><path d="M 111.84375 -160.203125 C 121.113281 -160.203125 129.171875 -158.640625 136.015625 -155.515625 C 142.867188 -152.398438 148.3125 -148.722656 152.34375 -144.484375 C 157.1875 -139.242188 160.363281 -133.046875 161.875 -125.890625 C 163.382812 -118.742188 164.140625 -110.835938 164.140625 -102.171875 L 164.140625 0 L 122.71875 0 L 122.71875 -85.546875 C 122.71875 -100.054688 121.101562 -110.835938 117.875 -117.890625 C 114.65625 -124.941406 107.804688 -128.46875 97.328125 -128.46875 C 87.453125 -128.46875 79.796875 -125.644531 74.359375 -120 C 68.921875 -114.363281 65.695312 -107.816406 64.6875 -100.359375 C 64.082031 -95.523438 63.628906 -91.191406 63.328125 -87.359375 C 63.023438 -83.523438 62.875 -79.191406 62.875 -74.359375 L 62.875 0 L 21.46875 0 L 21.46875 -156.578125 L 60.765625 -156.578125 L 60.765625 -133.609375 C 65.191406 -140.253906 71.785156 -146.347656 80.546875 -151.890625 C 89.316406 -157.429688 99.75 -160.203125 111.84375 -160.203125 Z M 111.84375 -160.203125 "/></g></g></g><g fill="#000000" fill-opacity="1"><g transform="translate(1827.607612, 348.328282)"><g><path d="M 63.171875 -178.046875 L 21.765625 -178.046875 L 21.765625 -216.4375 L 63.171875 -216.4375 Z M 63.171875 0 L 21.765625 0 L 21.765625 -156.578125 L 63.171875 -156.578125 Z M 63.171875 0 "/></g></g></g><g fill="#000000" fill-opacity="1"><g transform="translate(1911.643765, 348.328282)"><g><path d="M 140.265625 -127.265625 L 80.703125 -58.640625 L 73.453125 -50.78125 C 64.992188 -41.71875 60.257812 -36.578125 59.25 -35.359375 C 61.46875 -35.359375 64.789062 -35.5625 69.21875 -35.96875 L 80.109375 -36.578125 L 145.09375 -36.578125 L 145.09375 0 L 5.140625 0 L 5.140625 -32.34375 L 72.84375 -110.03125 C 76.675781 -114.46875 80.8125 -118.898438 85.25 -123.328125 C 76.976562 -122.523438 71.332031 -122.125 68.3125 -122.125 L 10.875 -122.125 L 10.875 -156.578125 L 140.265625 -156.578125 Z M 140.265625 -127.265625 "/></g></g></g><g fill="#000000" fill-opacity="1"><g transform="translate(2062.787821, 348.328282)"><g><path d="M 81.609375 -160.203125 C 106.597656 -160.203125 125.238281 -152.09375 137.53125 -135.875 C 149.832031 -119.65625 155.984375 -96.53125 155.984375 -66.5 L 52 -66.5 C 52.394531 -56.019531 55.460938 -47 61.203125 -39.4375 C 66.953125 -31.882812 75.269531 -28.109375 86.15625 -28.109375 C 93 -28.109375 98.585938 -29.867188 102.921875 -33.390625 C 107.253906 -36.921875 110.429688 -42.414062 112.453125 -49.875 L 153.859375 -42.921875 C 148.617188 -27.609375 140.15625 -16.019531 128.46875 -8.15625 C 116.78125 -0.300781 102.472656 3.625 85.546875 3.625 C 60.359375 3.625 41.316406 -3.929688 28.421875 -19.046875 C 22.367188 -26.097656 17.726562 -34.960938 14.5 -45.640625 C 11.28125 -56.328125 9.671875 -66.910156 9.671875 -77.390625 C 9.671875 -91.691406 12.238281 -105.140625 17.375 -117.734375 C 22.519531 -130.328125 30.484375 -140.550781 41.265625 -148.40625 C 52.046875 -156.269531 65.492188 -160.203125 81.609375 -160.203125 Z M 52.90625 -91.890625 L 114.859375 -91.890625 C 114.660156 -104.585938 111.488281 -113.859375 105.34375 -119.703125 C 99.195312 -125.546875 91.992188 -128.46875 83.734375 -128.46875 C 74.054688 -128.46875 66.5 -124.988281 61.0625 -118.03125 C 55.625 -111.082031 52.90625 -102.367188 52.90625 -91.890625 Z M 52.90625 -91.890625 "/></g></g></g></svg>