<?xml version="1.0" encoding="utf-8"?>
<!-- Generator: Adobe Illustrator 27.5.0, SVG Export Plug-In . SVG Version: 6.00 Build 0)  -->
<svg version="1.1" xmlns="http://www.w3.org/2000/svg" xmlns:xlink="http://www.w3.org/1999/xlink" x="0px" y="0px"
	 viewBox="0 0 500 500" style="enable-background:new 0 0 500 500;" xml:space="preserve">

<g id="OBJECTS">
	<g>
		<path style="fill:#C4C8FF;" d="M414.655,151.231c22.408,21.215,31.044,55.805,21.236,85.063
			c-9.808,29.257-37.547,51.654-68.215,55.076c-19.817,2.211-39.708-2.884-59.648-3.002c-6.101-0.036-12.576,0.523-17.51,4.111
			c-4.934,3.589-7.412,11.152-3.69,15.986c5.457,7.087,18.727,3.335,23.845,10.67c3.603,5.163,0.226,12.816-5.243,15.935
			c-5.469,3.119-12.138,2.972-18.429,2.706c-45.529-1.928-90.986-5.525-136.251-10.784c-24.337-2.827-49.374-6.387-70.447-18.885
			c-32.329-19.175-50.492-59.644-43.327-96.543c7.165-36.899,39.152-67.631,76.308-73.314c12.444-1.903,25.523,0.974,38.094,1.644
			c44.146,2.354,88.766-11.781,132.645-17.178C328.523,117.242,382.097,120.407,414.655,151.231z"/>
		<path style="fill:#C4C8FF;" d="M257.593,443.104c0,7.749-42.801,7.749-95.598,7.749s-95.599,0-95.599-7.749
			c0-7.749,42.801-7.749,95.599-7.749S257.593,435.355,257.593,443.104z"/>
	</g>
	<g>
		<g>
			<path style="fill:#814EFF;" d="M366.915,85.886v3.65c0,4.292-3.513,7.805-7.805,7.805h-72.165c-4.292,0-7.805-3.513-7.805-7.805
				v-3.65c0-4.292,3.513-7.805,7.805-7.805h72.165C363.402,78.081,366.915,81.594,366.915,85.886z"/>
			<g>
				<path style="fill:none;stroke:#060305;stroke-width:0.8;stroke-linecap:round;stroke-linejoin:round;stroke-miterlimit:10;" d="
					M305.599,84.8c17.604-0.286,34.07-0.286,51.522,0"/>
				<path style="fill:none;stroke:#060305;stroke-width:0.8;stroke-linecap:round;stroke-linejoin:round;stroke-miterlimit:10;" d="
					M288.934,84.8c2.928,0,5.855,0,8.783,0"/>
				<path style="fill:none;stroke:#060305;stroke-width:0.8;stroke-linecap:round;stroke-linejoin:round;stroke-miterlimit:10;" d="
					M288.934,90.621c17.803,0.48,34.269,0.48,52.187,0"/>
			</g>
		</g>
		<g>
			<path style="fill:#814EFF;" d="M263.077,85.886v3.65c0,4.292-3.513,7.805-7.805,7.805h-72.165c-4.292,0-7.805-3.513-7.805-7.805
				v-3.65c0-4.292,3.513-7.805,7.805-7.805h72.165C259.565,78.081,263.077,81.594,263.077,85.886z"/>
			<g>
				<path style="fill:none;stroke:#060305;stroke-width:0.8;stroke-linecap:round;stroke-linejoin:round;stroke-miterlimit:10;" d="
					M238.264,84.8c5.006,0,10.013,0,15.019,0"/>
				<path style="fill:none;stroke:#060305;stroke-width:0.8;stroke-linecap:round;stroke-linejoin:round;stroke-miterlimit:10;" d="
					M185.096,84.8c15.16-0.286,29.431-0.286,45.21,0"/>
				<path style="fill:none;stroke:#060305;stroke-width:0.8;stroke-linecap:round;stroke-linejoin:round;stroke-miterlimit:10;" d="
					M215.557,90.621c11.127,0.439,22.272,0.473,33.403,0.147"/>
				<path style="fill:none;stroke:#060305;stroke-width:0.8;stroke-linecap:round;stroke-linejoin:round;stroke-miterlimit:10;" d="
					M185.096,90.621c6.938,0,13.877,0,20.815,0"/>
			</g>
		</g>
		<g>
			<path style="fill:#FFFFFF;" d="M366.915,115.58v62.143c0,4.292-3.513,7.805-7.805,7.805h-72.165
				c-4.292,0-7.805-3.513-7.805-7.805V115.58c0-4.292,3.513-7.805,7.805-7.805h72.165
				C363.402,107.776,366.915,111.289,366.915,115.58z"/>
			<path style="fill:#9E97FF;" d="M366.915,115.58v9.408h-87.775v-9.408c0-4.292,3.513-7.805,7.805-7.805h72.165
				C363.402,107.776,366.915,111.289,366.915,115.58z"/>
			<g>
				<path style="fill:none;stroke:#060305;stroke-width:0.8;stroke-linecap:round;stroke-linejoin:round;stroke-miterlimit:10;" d="
					M317.873,114.706c13.014,0.545,26.186,0.545,39.247,0"/>
				<path style="fill:none;stroke:#060305;stroke-width:0.8;stroke-linecap:round;stroke-linejoin:round;stroke-miterlimit:10;" d="
					M288.934,114.706c6.121,0,12.242,0,18.363,0"/>
				<path style="fill:none;stroke:#060305;stroke-width:0.8;stroke-linecap:round;stroke-linejoin:round;stroke-miterlimit:10;" d="
					M288.934,120.527c17.803,0.213,36.465,0.213,54.129,0"/>
			</g>
			<g>
				<path style="fill:none;stroke:#060305;stroke-width:0.8;stroke-linecap:round;stroke-linejoin:round;stroke-miterlimit:10;" d="
					M349.388,137.049c2.578,0,5.155,0,7.733,0"/>
				<path style="fill:none;stroke:#060305;stroke-width:0.8;stroke-linecap:round;stroke-linejoin:round;stroke-miterlimit:10;" d="
					M309.255,137.049c11.727,0.15,24.056,0.15,35.694,0"/>
				<path style="fill:none;stroke:#060305;stroke-width:0.8;stroke-linecap:round;stroke-linejoin:round;stroke-miterlimit:10;" d="
					M321.904,142.98c11.407-0.293,23.736-0.293,35.216,0"/>
				<path style="fill:none;stroke:#060305;stroke-width:0.8;stroke-linecap:round;stroke-linejoin:round;stroke-miterlimit:10;" d="
					M309.255,142.98c2.855,0,5.71,0,8.565,0"/>
				<path style="fill:none;stroke:#060305;stroke-width:0.8;stroke-linecap:round;stroke-linejoin:round;stroke-miterlimit:10;" d="
					M332.724,149.103c2.326-0.045,4.652-0.109,6.978-0.192"/>
				<path style="fill:none;stroke:#060305;stroke-width:0.8;stroke-linecap:round;stroke-linejoin:round;stroke-miterlimit:10;" d="
					M309.255,148.911c6.753,0.24,13.509,0.322,20.264,0.242"/>
				<path style="fill:none;stroke:#060305;stroke-width:0.8;stroke-linecap:round;stroke-linejoin:round;stroke-miterlimit:10;" d="
					M350.767,160.773c2.118,0,4.236,0,6.354,0"/>
				<path style="fill:none;stroke:#060305;stroke-width:0.8;stroke-linecap:round;stroke-linejoin:round;stroke-miterlimit:10;" d="
					M309.255,160.773c12.497-0.522,24.827-0.522,37.323,0"/>
				<path style="fill:none;stroke:#060305;stroke-width:0.8;stroke-linecap:round;stroke-linejoin:round;stroke-miterlimit:10;" d="
					M330.103,166.704c9.373,0.134,17.849,0.134,27.018,0"/>
				<path style="fill:none;stroke:#060305;stroke-width:0.8;stroke-linecap:round;stroke-linejoin:round;stroke-miterlimit:10;" d="
					M309.255,166.704c5.548,0,11.095,0,16.643,0"/>
				<path style="fill:none;stroke:#060305;stroke-width:0.8;stroke-linecap:round;stroke-linejoin:round;stroke-miterlimit:10;" d="
					M309.255,172.635c12.497-0.309,24.056-0.309,36.634,0"/>
				<circle style="fill:#FE5615;" cx="294.939" cy="142.98" r="7.168"/>
				<circle style="fill:#814EFF;" cx="294.939" cy="166.804" r="7.168"/>
			</g>
		</g>
		<g>
			<path style="fill:#FFFFFF;" d="M366.915,203.343v46.775c0,4.292-3.513,7.805-7.805,7.805h-72.165
				c-4.292,0-7.805-3.513-7.805-7.805v-46.775c0-4.292,3.513-7.805,7.805-7.805h72.165
				C363.402,195.538,366.915,199.051,366.915,203.343z"/>
			<path style="fill:#9E97FF;" d="M366.915,203.343v9.408h-87.775v-9.408c0-4.292,3.513-7.805,7.805-7.805h72.165
				C363.402,195.538,366.915,199.051,366.915,203.343z"/>
			<g>
				<path style="fill:none;stroke:#060305;stroke-width:0.8;stroke-linecap:round;stroke-linejoin:round;stroke-miterlimit:10;" d="
					M311.184,202.55c15.312,0.521,30.68,0.521,45.936,0"/>
				<path style="fill:none;stroke:#060305;stroke-width:0.8;stroke-linecap:round;stroke-linejoin:round;stroke-miterlimit:10;" d="
					M288.934,202.55c4.899,0,9.798,0,14.696,0"/>
				<path style="fill:none;stroke:#060305;stroke-width:0.8;stroke-linecap:round;stroke-linejoin:round;stroke-miterlimit:10;" d="
					M348.338,208.371c2.928,0,5.855,0,8.783,0"/>
				<path style="fill:none;stroke:#060305;stroke-width:0.8;stroke-linecap:round;stroke-linejoin:round;stroke-miterlimit:10;" d="
					M288.934,208.371c17.803,0.188,34.269,0.188,51.855,0"/>
			</g>
			<g>
				<path style="fill:none;stroke:#060305;stroke-width:0.8;stroke-linecap:round;stroke-linejoin:round;stroke-miterlimit:10;" d="
					M327.422,222.107c9.9,0,19.799,0,29.699,0"/>
				<path style="fill:none;stroke:#060305;stroke-width:0.8;stroke-linecap:round;stroke-linejoin:round;stroke-miterlimit:10;" d="
					M302.567,221.835c6.374-0.04,12.749,0.046,19.12,0.272"/>
				<path style="fill:none;stroke:#060305;stroke-width:0.8;stroke-linecap:round;stroke-linejoin:round;stroke-miterlimit:10;" d="
					M288.934,222.107c2.788-0.093,5.576-0.163,8.365-0.211"/>
				<path style="fill:none;stroke:#060305;stroke-width:0.8;stroke-linecap:round;stroke-linejoin:round;stroke-miterlimit:10;" d="
					M341.45,228.038c5.224,0,10.447,0,15.671,0"/>
				<path style="fill:none;stroke:#060305;stroke-width:0.8;stroke-linecap:round;stroke-linejoin:round;stroke-miterlimit:10;" d="
					M288.934,228.038c15.608,0.281,30.976,0.281,45.936,0"/>
				<path style="fill:none;stroke:#060305;stroke-width:0.8;stroke-linecap:round;stroke-linejoin:round;stroke-miterlimit:10;" d="
					M353.371,233.969c1.25,0,2.5,0,3.75,0"/>
				<path style="fill:none;stroke:#060305;stroke-width:0.8;stroke-linecap:round;stroke-linejoin:round;stroke-miterlimit:10;" d="
					M308.053,233.861c12.78-0.036,25.561-0.002,38.341,0.108"/>
				<path style="fill:none;stroke:#060305;stroke-width:0.8;stroke-linecap:round;stroke-linejoin:round;stroke-miterlimit:10;" d="
					M288.934,233.969c4.154-0.036,8.308-0.063,12.462-0.083"/>
				<path style="fill:none;stroke:#060305;stroke-width:0.8;stroke-linecap:round;stroke-linejoin:round;stroke-miterlimit:10;" d="
					M332.307,239.9c8.271,0,16.542,0,24.814,0"/>
				<path style="fill:none;stroke:#060305;stroke-width:0.8;stroke-linecap:round;stroke-linejoin:round;stroke-miterlimit:10;" d="
					M288.934,239.9c12.314,0.494,25.487,0.494,37.727,0"/>
				<path style="fill:none;stroke:#060305;stroke-width:0.8;stroke-linecap:round;stroke-linejoin:round;stroke-miterlimit:10;" d="
					M310.663,245.868c11.009,0.007,22.019-0.006,33.029-0.037"/>
				<path style="fill:none;stroke:#060305;stroke-width:0.8;stroke-linecap:round;stroke-linejoin:round;stroke-miterlimit:10;" d="
					M288.934,245.831c4.777,0.013,9.553,0.023,14.329,0.029"/>
			</g>
		</g>
		<g>
			<path style="fill:#FFFFFF;" d="M263.077,115.58v46.775c0,4.292-3.513,7.805-7.805,7.805h-72.165
				c-4.292,0-7.805-3.513-7.805-7.805V115.58c0-4.292,3.513-7.805,7.805-7.805h72.165
				C259.565,107.776,263.077,111.289,263.077,115.58z"/>
			<path style="fill:#9E97FF;" d="M263.077,115.58v9.408h-87.775v-9.408c0-4.292,3.513-7.805,7.805-7.805h72.165
				C259.565,107.776,263.077,111.289,263.077,115.58z"/>
			<g>
				<path style="fill:none;stroke:#060305;stroke-width:0.8;stroke-linecap:round;stroke-linejoin:round;stroke-miterlimit:10;" d="
					M222.34,115.115c10.315,0.07,20.632-0.043,30.943-0.327"/>
				<path style="fill:none;stroke:#060305;stroke-width:0.8;stroke-linecap:round;stroke-linejoin:round;stroke-miterlimit:10;" d="
					M203.804,114.787c2.709,0.077,5.418,0.142,8.127,0.193"/>
				<path style="fill:none;stroke:#060305;stroke-width:0.8;stroke-linecap:round;stroke-linejoin:round;stroke-miterlimit:10;" d="
					M185.096,114.787c4.476,0,8.953,0,13.429,0"/>
				<path style="fill:none;stroke:#060305;stroke-width:0.8;stroke-linecap:round;stroke-linejoin:round;stroke-miterlimit:10;" d="
					M185.096,120.608c18.453,0.132,36.017,0.132,54.445,0"/>
			</g>
			<g>
				<path style="fill:none;stroke:#060305;stroke-width:0.8;stroke-linecap:round;stroke-linejoin:round;stroke-miterlimit:10;" d="
					M208.438,134.344c14.871-0.431,29.141-0.431,44.845,0"/>
				<path style="fill:none;stroke:#060305;stroke-width:0.8;stroke-linecap:round;stroke-linejoin:round;stroke-miterlimit:10;" d="
					M185.096,134.344c5.224,0,10.447,0,15.671,0"/>
				<path style="fill:none;stroke:#060305;stroke-width:0.8;stroke-linecap:round;stroke-linejoin:round;stroke-miterlimit:10;" d="
					M243.96,140.275c3.108,0,6.215,0,9.323,0"/>
				<path style="fill:none;stroke:#060305;stroke-width:0.8;stroke-linecap:round;stroke-linejoin:round;stroke-miterlimit:10;" d="
					M185.096,140.275c17.355,0.224,34.919,0.224,52.843,0"/>
				
					<line style="fill:none;stroke:#060305;stroke-width:0.8;stroke-linecap:round;stroke-linejoin:round;stroke-miterlimit:10;" x1="185.096" y1="146.206" x2="253.283" y2="146.206"/>
				<path style="fill:none;stroke:#060305;stroke-width:0.8;stroke-linecap:round;stroke-linejoin:round;stroke-miterlimit:10;" d="
					M223.964,152.137c9.773,0,19.546,0,29.319,0"/>
				<path style="fill:none;stroke:#060305;stroke-width:0.8;stroke-linecap:round;stroke-linejoin:round;stroke-miterlimit:10;" d="
					M185.096,152.137c10.769,0.437,22.844,0.437,33.519,0"/>
				<path style="fill:none;stroke:#060305;stroke-width:0.8;stroke-linecap:round;stroke-linejoin:round;stroke-miterlimit:10;" d="
					M243.96,158.068c3.108,0,6.215,0,9.323,0"/>
				<path style="fill:none;stroke:#060305;stroke-width:0.8;stroke-linecap:round;stroke-linejoin:round;stroke-miterlimit:10;" d="
					M185.096,158.068c17.355-0.005,34.919-0.005,52.843,0"/>
			</g>
		</g>
		<g>
			<path style="fill:#FFFFFF;" d="M470.338,115.88v46.775c0,4.292-3.513,7.805-7.805,7.805h-72.165
				c-4.292,0-7.805-3.513-7.805-7.805V115.88c0-4.292,3.513-7.805,7.805-7.805h72.165
				C466.825,108.075,470.338,111.588,470.338,115.88z"/>
			<path style="fill:#9E97FF;" d="M470.338,115.88v9.408h-87.775v-9.408c0-4.292,3.513-7.805,7.805-7.805h72.165
				C466.825,108.075,470.338,111.588,470.338,115.88z"/>
			<g>
				<path style="fill:none;stroke:#060305;stroke-width:0.8;stroke-linecap:round;stroke-linejoin:round;stroke-miterlimit:10;" d="
					M451.221,114.706c3.108,0,6.215,0,9.323,0"/>
				<path style="fill:none;stroke:#060305;stroke-width:0.8;stroke-linecap:round;stroke-linejoin:round;stroke-miterlimit:10;" d="
					M411.678,115.086c11.283,0.093,22.568-0.039,33.847-0.38"/>
				<path style="fill:none;stroke:#060305;stroke-width:0.8;stroke-linecap:round;stroke-linejoin:round;stroke-miterlimit:10;" d="
					M392.357,114.706c4.703,0.146,9.407,0.253,14.112,0.321"/>
				<path style="fill:none;stroke:#060305;stroke-width:0.8;stroke-linecap:round;stroke-linejoin:round;stroke-miterlimit:10;" d="
					M392.357,120.527c12.079,0.213,23.056,0.213,34.668,0"/>
			</g>
			<g>
				<path style="fill:none;stroke:#060305;stroke-width:0.8;stroke-linecap:round;stroke-linejoin:round;stroke-miterlimit:10;" d="
					M453.717,134.764c2.276,0,4.551,0,6.826,0"/>
				<path style="fill:none;stroke:#060305;stroke-width:0.8;stroke-linecap:round;stroke-linejoin:round;stroke-miterlimit:10;" d="
					M409.785,134.862c12.972,0.104,25.944,0.069,38.916-0.097"/>
				<path style="fill:none;stroke:#060305;stroke-width:0.8;stroke-linecap:round;stroke-linejoin:round;stroke-miterlimit:10;" d="
					M400.408,134.764c1.793,0.023,3.586,0.043,5.379,0.061"/>
				<path style="fill:none;stroke:#060305;stroke-width:0.8;stroke-linecap:round;stroke-linejoin:round;stroke-miterlimit:10;" d="
					M436.686,143.058c7.953,0,15.905,0,23.858,0"/>
				<path style="fill:none;stroke:#060305;stroke-width:0.8;stroke-linecap:round;stroke-linejoin:round;stroke-miterlimit:10;" d="
					M400.408,143.058c9.685-0.409,19.366-0.409,29.223,0"/>
				<path style="fill:none;stroke:#060305;stroke-width:0.8;stroke-linecap:round;stroke-linejoin:round;stroke-miterlimit:10;" d="
					M452.532,151.568c2.671-0.057,5.341-0.13,8.012-0.216"/>
				<path style="fill:none;stroke:#060305;stroke-width:0.8;stroke-linecap:round;stroke-linejoin:round;stroke-miterlimit:10;" d="
					M414.229,151.351c10.768,0.358,21.54,0.461,32.31,0.32"/>
				<path style="fill:none;stroke:#060305;stroke-width:0.8;stroke-linecap:round;stroke-linejoin:round;stroke-miterlimit:10;" d="
					M400.408,151.351c3.069,0,6.138,0,9.207,0"/>
				<path style="fill:none;stroke:#060305;stroke-width:0.8;stroke-linecap:round;stroke-linejoin:round;stroke-miterlimit:10;" d="
					M433.68,159.645c8.954,0,17.909,0,26.864,0"/>
				<path style="fill:none;stroke:#060305;stroke-width:0.8;stroke-linecap:round;stroke-linejoin:round;stroke-miterlimit:10;" d="
					M400.408,159.645c8.955,0,17.909,0,26.864,0"/>
				<rect x="392.357" y="132.95" style="fill:#060305;" width="3.63" height="3.63"/>
				<rect x="392.357" y="140.936" style="fill:#060305;" width="3.63" height="3.63"/>
				<rect x="392.357" y="149.536" style="fill:#060305;" width="3.63" height="3.63"/>
				<rect x="392.357" y="157.83" style="fill:#060305;" width="3.63" height="3.63"/>
			</g>
		</g>
		<g>
			<path style="fill:#FFFFFF;" d="M263.077,188.101v46.775c0,4.292-3.513,7.805-7.805,7.805h-72.165
				c-4.292,0-7.805-3.513-7.805-7.805v-46.775c0-4.292,3.513-7.805,7.805-7.805h72.165
				C259.565,180.296,263.077,183.809,263.077,188.101z"/>
			<path style="fill:#9E97FF;" d="M263.077,188.101v9.408h-87.775v-9.408c0-4.292,3.513-7.805,7.805-7.805h72.165
				C259.565,180.296,263.077,183.809,263.077,188.101z"/>
			<g>
				<path style="fill:none;stroke:#060305;stroke-width:0.8;stroke-linecap:round;stroke-linejoin:round;stroke-miterlimit:10;" d="
					M243.408,186.927c3.292,0,6.583,0,9.875,0"/>
				<path style="fill:none;stroke:#060305;stroke-width:0.8;stroke-linecap:round;stroke-linejoin:round;stroke-miterlimit:10;" d="
					M185.096,186.927c16.258-0.322,33.822-0.322,50.168,0"/>
				<path style="fill:none;stroke:#060305;stroke-width:0.8;stroke-linecap:round;stroke-linejoin:round;stroke-miterlimit:10;" d="
					M185.096,192.748c20.649,0.443,42.603,0.443,63.857,0"/>
			</g>
			<g>
				<path style="fill:none;stroke:#060305;stroke-width:0.8;stroke-linecap:round;stroke-linejoin:round;stroke-miterlimit:10;" d="
					M223.703,206.268c9.861,0.013,19.721-0.087,29.58-0.284"/>
				<path style="fill:none;stroke:#060305;stroke-width:0.8;stroke-linecap:round;stroke-linejoin:round;stroke-miterlimit:10;" d="
					M197.906,205.984c7.139,0.144,14.28,0.237,21.42,0.271"/>
				<path style="fill:none;stroke:#060305;stroke-width:0.8;stroke-linecap:round;stroke-linejoin:round;stroke-miterlimit:10;" d="
					M185.096,205.984c2.496,0,4.992,0,7.488,0"/>
				<path style="fill:none;stroke:#060305;stroke-width:0.8;stroke-linecap:round;stroke-linejoin:round;stroke-miterlimit:10;" d="
					M245.543,211.915c2.58,0,5.16,0,7.74,0"/>
				<path style="fill:none;stroke:#060305;stroke-width:0.8;stroke-linecap:round;stroke-linejoin:round;stroke-miterlimit:10;" d="
					M185.096,211.915c18.453-0.062,37.115-0.062,56.287,0"/>
				<path style="fill:none;stroke:#060305;stroke-width:0.8;stroke-linecap:round;stroke-linejoin:round;stroke-miterlimit:10;" d="
					M223.584,217.846c9.9,0,19.799,0,29.699,0"/>
				<path style="fill:none;stroke:#060305;stroke-width:0.8;stroke-linecap:round;stroke-linejoin:round;stroke-miterlimit:10;" d="
					M185.096,217.846c10.769-0.505,22.844-0.505,33.519,0"/>
				<path style="fill:none;stroke:#060305;stroke-width:0.8;stroke-linecap:round;stroke-linejoin:round;stroke-miterlimit:10;" d="
					M241.68,223.777c3.868,0,7.735,0,11.603,0"/>
				<path style="fill:none;stroke:#060305;stroke-width:0.8;stroke-linecap:round;stroke-linejoin:round;stroke-miterlimit:10;" d="
					M185.096,223.777c17.355,0.151,33.822,0.151,50.849,0"/>
				<path style="fill:none;stroke:#060305;stroke-width:0.8;stroke-linecap:round;stroke-linejoin:round;stroke-miterlimit:10;" d="
					M185.096,229.708c12.965-0.292,25.04-0.292,38.108,0"/>
			</g>
		</g>
		<g>
			<path style="fill:#814EFF;" d="M470.338,85.886v3.65c0,4.292-3.513,7.805-7.805,7.805h-72.165c-4.292,0-7.805-3.513-7.805-7.805
				v-3.65c0-4.292,3.513-7.805,7.805-7.805h72.165C466.825,78.081,470.338,81.594,470.338,85.886z"/>
			<g>
				<path style="fill:none;stroke:#060305;stroke-width:0.8;stroke-linecap:round;stroke-linejoin:round;stroke-miterlimit:10;" d="
					M444.543,84.8c5.333,0,10.667,0,16,0"/>
				<path style="fill:none;stroke:#060305;stroke-width:0.8;stroke-linecap:round;stroke-linejoin:round;stroke-miterlimit:10;" d="
					M392.357,84.8c14.275-0.286,27.447-0.286,41.885,0"/>
				<path style="fill:none;stroke:#060305;stroke-width:0.8;stroke-linecap:round;stroke-linejoin:round;stroke-miterlimit:10;" d="
					M456.084,90.733c1.487-0.034,2.973-0.071,4.46-0.111"/>
				<path style="fill:none;stroke:#060305;stroke-width:0.8;stroke-linecap:round;stroke-linejoin:round;stroke-miterlimit:10;" d="
					M408.357,90.621c14.189,0.378,28.385,0.464,42.577,0.215"/>
				<path style="fill:none;stroke:#060305;stroke-width:0.8;stroke-linecap:round;stroke-linejoin:round;stroke-miterlimit:10;" d="
					M392.357,90.621c2.839,0,5.678,0,8.517,0"/>
			</g>
		</g>
	</g>
	<g>
		<polygon style="fill:#FFD1C7;" points="216.658,173.308 226.147,209.205 186.05,202.109 186.05,177.65 		"/>
		<path style="fill:#FFD1C7;" d="M72.301,198.074c2.07-10.856,14.855-34.712,14.855-34.712l27.896,8.798l-2.228,23.175
			L72.301,198.074z"/>
		<g>
			<path style="fill:#FE5615;" d="M208.495,155.174c-6.601-6.029-15.248-8.93-23.443-12.504
				c-8.041-3.507-16.035-7.135-24.077-10.641c-2.624,1.265-5.533,2.152-8.427,1.823c-2.894-0.329-5.651-2.247-6.674-4.975
				c-9.898,2.894-19.797,5.787-29.695,8.681c-8.077,2.362-15.78,5.934-21.911,11.699c-5.836,5.488-11.231,10.962-15.631,17.655
				c10.699,2.872,21.536,5.748,32.236,8.621c-1.695,16.339-2.659,23.736-4.354,40.075l82.042,11.033
				c0.1-14.509,0.665-28.98,0.765-43.488c11.239-1.873,22.37-3.849,33.609-5.722C220.12,168.945,215.096,161.203,208.495,155.174z"
				/>
			<path style="fill:none;stroke:#060305;stroke-width:0.8;stroke-linecap:round;stroke-linejoin:round;stroke-miterlimit:10;" d="
				M128.338,134.47c1.697,6.92,6.355,13.093,12.609,16.708c6.253,3.614,14.017,4.621,21.014,2.726
				c6.997-1.896,13.132-6.669,16.605-12.918"/>
			<path style="fill:none;stroke:#060305;stroke-width:0.8;stroke-linecap:round;stroke-linejoin:round;stroke-miterlimit:10;" d="
				M115.278,138.296c-1.501,12.307-3.002,24.614-4.502,36.921"/>
			<path style="fill:none;stroke:#060305;stroke-width:0.8;stroke-linecap:round;stroke-linejoin:round;stroke-miterlimit:10;" d="
				M191.587,145.763c-0.739,12.368-1.478,24.736-2.217,37.104"/>
			<path style="fill:none;stroke:#060305;stroke-width:0.8;stroke-linecap:round;stroke-linejoin:round;stroke-miterlimit:10;" d="
				M190.139,177.65c10.044-1.76,20.088-3.52,30.132-5.28"/>
			<path style="fill:none;stroke:#060305;stroke-width:0.8;stroke-linecap:round;stroke-linejoin:round;stroke-miterlimit:10;" d="
				M82.755,162.801c9.481,2.2,18.963,4.4,28.444,6.601"/>
		</g>
		<g>
			<path style="fill:#FFD1C7;" d="M210.044,382.996c-14.585,6.004-29.468,12.363-44.053,18.367
				c2.482,5.388,4.963,10.776,7.445,16.164l43.95-12.003C216.14,397.55,213.281,390.39,210.044,382.996z"/>
			<g>
				<path style="fill:#814EFF;" d="M217.518,397.688c-15.84,5.56-31.926,11.31-47.765,16.87c4.116,6.454,4.794,14.969,1.751,21.992
					c-0.849,1.96-2.564,4.141-2.683,6.273l29.507,0.168c9.305-5.414,18.981-10.358,28.286-15.771
					C223.55,417.423,220.581,407.485,217.518,397.688z"/>
				<path style="fill:none;stroke:#060305;stroke-width:0.8;stroke-linecap:round;stroke-linejoin:round;stroke-miterlimit:10;" d="
					M170.054,439.177c3.311-3.497,8.155-5.488,12.969-5.33c4.813,0.158,9.517,2.461,12.592,6.167
					c9.248-5.45,18.548-11.022,27.796-16.473"/>
				<path style="fill:none;stroke:#060305;stroke-width:0.8;stroke-linecap:round;stroke-linejoin:round;stroke-miterlimit:10;" d="
					M178.603,421.35c3.587-1.125,7.175-2.249,10.762-3.374"/>
				<path style="fill:none;stroke:#060305;stroke-width:0.8;stroke-linecap:round;stroke-linejoin:round;stroke-miterlimit:10;" d="
					M179.28,424.398c3.182-0.875,6.363-1.751,9.545-2.626"/>
			</g>
		</g>
		<g>
			<path style="fill:#FFD1C7;" d="M161.595,392.649c-15.893,0.941-31.876,2.373-47.769,3.315c1.321,9.3,2.642,18.601,3.963,27.901
				l45.788-0.023C163.003,413.379,162.168,403.111,161.595,392.649z"/>
			<g>
				<path style="fill:#814EFF;" d="M164.422,415.988c-16.619,0.423-32.814,1.173-49.433,1.597c1.124,3.747,0.874,7.891-0.692,11.476
					c-1.566,3.585-4.436,6.584-7.949,8.306c-1.282,0.628-2.733,0.998-3.854,1.882c-1.121,0.884-1.993,2.196-2,3.623l65.851,0.603
					C165.689,434.354,165.077,425.111,164.422,415.988z"/>
				<path style="fill:none;stroke:#060305;stroke-width:0.8;stroke-linecap:round;stroke-linejoin:round;stroke-miterlimit:10;" d="
					M111.05,435.507c1.725,1.374,3.45,2.748,5.175,4.121c16.531-0.329,32.824-0.508,49.355-0.837"/>
				<path style="fill:none;stroke:#060305;stroke-width:0.8;stroke-linecap:round;stroke-linejoin:round;stroke-miterlimit:10;" d="
					M115.988,425.128c2.066-0.096,4.132-0.193,6.198-0.289"/>
				<path style="fill:none;stroke:#060305;stroke-width:0.8;stroke-linecap:round;stroke-linejoin:round;stroke-miterlimit:10;" d="
					M114.699,428.449c2.066,0.086,4.133,0.172,6.199,0.258"/>
			</g>
		</g>
		<g>
			<path style="fill:#060305;" d="M195.465,329.722c2.771-12.48,5.11-24.911,7.881-37.392c5.599-25.215,9.836-51.721,7.069-77.402
				l-33.496-7.721l12.126-64.546l-5.125-2.032l-16.629,64.358l-41.205-9.498v-62.166l-5.475,1.423l-4.677,67.339
				c-11.435,21.893-15.302,47.081-13.926,71.94c2.28,41.185-1.956,83.011-2.621,124.254c18.427-0.527,36.668-0.543,55.095-1.07
				c0.494,3.521,0.956,7.08,1.45,10.601c21.538-7.365,42.977-14.512,64.515-21.878C212.077,367.553,203.833,348.1,195.465,329.722z"
				/>
			<path style="fill:none;stroke:#FFFFFF;stroke-width:0.8;stroke-linecap:round;stroke-linejoin:round;stroke-miterlimit:10;" d="
				M119.221,161.453c0.181,1.522,1.626,2.786,3.159,2.764c1.533-0.023,2.939-1.33,3.075-2.857L119.221,161.453z"/>
			<path style="fill:none;stroke:#FFFFFF;stroke-width:0.8;stroke-linecap:round;stroke-linejoin:round;stroke-miterlimit:10;" d="
				M177.615,167.844c-0.343,1.529,0.731,3.233,2.259,3.584c1.528,0.351,3.237-0.715,3.595-2.24L177.615,167.844z"/>
			<path style="fill:none;stroke:#FFFFFF;stroke-width:0.8;stroke-linecap:round;stroke-linejoin:round;stroke-miterlimit:10;" d="
				M148.501,248.974c-0.52,19.46-1.04,38.92-1.561,58.381c-0.819,30.63,1.904,61.058,7.694,91.147"/>
			<path style="fill:none;stroke:#FFFFFF;stroke-width:0.8;stroke-linecap:round;stroke-linejoin:round;stroke-miterlimit:10;" d="
				M195.403,330.144c-0.967,1.97-1.935,3.941-2.902,5.911"/>
			<path style="fill:none;stroke:#FFFFFF;stroke-width:0.8;stroke-linecap:round;stroke-linejoin:round;stroke-miterlimit:10;" d="
				M147.881,396.98c-0.262-10.088,0.239-20.195,1.499-30.208"/>
			<path style="fill:none;stroke:#FFFFFF;stroke-width:0.8;stroke-linecap:round;stroke-linejoin:round;stroke-miterlimit:10;" d="
				M197.08,281.911c-1.091,13.002-5.269,35.864-8.857,48.408c-0.425,1.486-1.666,2.313-2.022,3.817
				c-0.355,1.504,0.086,3.314,1.428,4.08c1.486,0.847,3.576,0.209,4.895,1.297c1.25,1.03,0.822,3.406-0.708,3.936
				c5.548,14.708,10.71,30.09,16.259,44.798"/>
		</g>
		<g>
			<path style="fill:#FFFFFF;" d="M251.939,223.969l-30.574,64.392c-2.111,4.447-7.48,6.359-11.927,4.247l-74.777-35.505
				c-4.447-2.112-6.359-7.48-4.247-11.927l30.574-64.392c2.112-4.447,7.48-6.359,11.927-4.247l74.777,35.505
				C252.139,214.153,254.05,219.522,251.939,223.969z"/>
			<path style="fill:#814EFF;" d="M251.939,223.969l-4.629,9.749l-90.952-43.185l4.629-9.749c2.112-4.447,7.48-6.359,11.927-4.247
				l74.777,35.505C252.139,214.153,254.05,219.522,251.939,223.969z"/>
			<g>
				<path style="fill:none;stroke:#060305;stroke-width:0.8;stroke-linecap:round;stroke-linejoin:round;stroke-miterlimit:10;" d="
					M201.553,198.935c13.216,6.968,26.866,13.449,40.668,19.309"/>
				<path style="fill:none;stroke:#060305;stroke-width:0.8;stroke-linecap:round;stroke-linejoin:round;stroke-miterlimit:10;" d="
					M171.566,184.697c6.342,3.011,12.685,6.023,19.027,9.034"/>
				<path style="fill:none;stroke:#060305;stroke-width:0.8;stroke-linecap:round;stroke-linejoin:round;stroke-miterlimit:10;" d="
					M168.702,190.728c18.343,8.98,37.68,18.161,56.088,26.631"/>
			</g>
			<g>
				<path style="fill:none;stroke:#060305;stroke-width:0.8;stroke-linecap:round;stroke-linejoin:round;stroke-miterlimit:10;" d="
					M221.43,232.571c3.805,1.807,7.609,3.613,11.414,5.42"/>
				<path style="fill:none;stroke:#060305;stroke-width:0.8;stroke-linecap:round;stroke-linejoin:round;stroke-miterlimit:10;" d="
					M162.19,204.443c17.236,8.374,35.436,17.016,52.689,25.017"/>
				<path style="fill:none;stroke:#060305;stroke-width:0.8;stroke-linecap:round;stroke-linejoin:round;stroke-miterlimit:10;" d="
					M177.943,219.454c16.982,7.692,35.181,16.333,51.983,24.682"/>
				<path style="fill:none;stroke:#060305;stroke-width:0.8;stroke-linecap:round;stroke-linejoin:round;stroke-miterlimit:10;" d="
					M159.272,210.589c4.214,2.001,8.428,4.002,12.643,6.003"/>
				<path style="fill:none;stroke:#060305;stroke-width:0.8;stroke-linecap:round;stroke-linejoin:round;stroke-miterlimit:10;" d="
					M207.264,240.907c6.582,3.125,13.163,6.25,19.745,9.375"/>
				<path style="fill:none;stroke:#060305;stroke-width:0.8;stroke-linecap:round;stroke-linejoin:round;stroke-miterlimit:10;" d="
					M190.902,233.382c3.456,1.583,6.921,3.148,10.395,4.692"/>
				<path style="fill:none;stroke:#060305;stroke-width:0.8;stroke-linecap:round;stroke-linejoin:round;stroke-miterlimit:10;" d="
					M156.354,216.735c9.85,4.982,19.782,9.802,29.793,14.453"/>
				<path style="fill:none;stroke:#060305;stroke-width:0.8;stroke-linecap:round;stroke-linejoin:round;stroke-miterlimit:10;" d="
					M176.492,233.827c15.905,7.451,31.83,15.012,47.599,22.6"/>
				<path style="fill:none;stroke:#060305;stroke-width:0.8;stroke-linecap:round;stroke-linejoin:round;stroke-miterlimit:10;" d="
					M153.436,222.88c5.413,2.57,10.825,5.14,16.238,7.71"/>
				<path style="fill:none;stroke:#060305;stroke-width:0.8;stroke-linecap:round;stroke-linejoin:round;stroke-miterlimit:10;" d="
					M211.794,258.121c3.126,1.484,6.252,2.969,9.379,4.453"/>
				<path style="fill:none;stroke:#060305;stroke-width:0.8;stroke-linecap:round;stroke-linejoin:round;stroke-miterlimit:10;" d="
					M150.518,229.026c18.704,8.218,36.904,16.86,55.092,26.158"/>
				<path style="fill:none;stroke:#060305;stroke-width:0.8;stroke-linecap:round;stroke-linejoin:round;stroke-miterlimit:10;" d="
					M178.374,249.783c13.77,6.708,26.282,12.648,39.881,18.936"/>
				<path style="fill:none;stroke:#060305;stroke-width:0.8;stroke-linecap:round;stroke-linejoin:round;stroke-miterlimit:10;" d="
					M147.6,235.172c8.189,3.888,16.377,7.776,24.566,11.664"/>
				<path style="fill:none;stroke:#060305;stroke-width:0.8;stroke-linecap:round;stroke-linejoin:round;stroke-miterlimit:10;" d="
					M204.519,269.729c3.606,1.712,7.212,3.424,10.817,5.136"/>
				<path style="fill:none;stroke:#060305;stroke-width:0.8;stroke-linecap:round;stroke-linejoin:round;stroke-miterlimit:10;" d="
					M144.682,241.318c18.599,8.439,35.661,16.54,54.075,25.676"/>
				<path style="fill:none;stroke:#060305;stroke-width:0.8;stroke-linecap:round;stroke-linejoin:round;stroke-miterlimit:10;" d="
					M181.644,266.399c8.417,3.996,16.834,7.993,25.25,11.989"/>
				<path style="fill:none;stroke:#060305;stroke-width:0.8;stroke-linecap:round;stroke-linejoin:round;stroke-miterlimit:10;" d="
					M141.764,247.463c11.048,5.246,22.097,10.492,33.145,15.738"/>
			</g>
		</g>
		<g>
			<g>
				<path style="fill:none;stroke:#C14F4F;stroke-width:0.8;stroke-linecap:round;stroke-linejoin:round;stroke-miterlimit:10;" d="
					M108.328,111.024c4.688-4.164,10.738-6.769,16.984-7.314c6.247-0.545,12.656,0.974,17.994,4.264"/>
				<path style="fill:#C14F4F;" d="M169.677,106.537c-0.983-1.454-2.847-2.282-4.582-2.012c-3.109-2.775-7.453-4.112-11.585-3.566
					c-4.132,0.546-8.091,3.023-10.372,6.511c-5.544-3.443-12.381-4.744-18.802-3.579c-6.421,1.166-12.365,4.788-16.345,9.959
					c-1.417,1.842-1.388,4.854,0.117,6.624c1.505,1.77,4.282,2.302,6.335,1.214c-0.11,1.569,0.935,3.286,2.444,3.731
					c1.509,0.444,3.278-0.286,4.036-1.664c0.408,1.252,2.139,1.92,3.455,1.855c1.315-0.065,2.526-0.705,3.668-1.36
					c3.678-2.111,7.165-4.538,10.645-6.962c1.086,0.759,2.131,1.572,3.217,2.331l24.285-5.341c1.439-0.566,2.841-1.42,3.631-2.749
					C170.719,110.017,170.66,107.992,169.677,106.537z"/>
			</g>
			<g>
				<path style="fill:#FFD1C7;" d="M174.659,139.963c-4.45-2.04-9.016-4.07-13.466-6.109c0.268-1.904,0.584-3.771,0.852-5.675
					c2.135-0.778,3.968-2.357,5.054-4.353c1.086-1.997,1.426-4.48,1.067-6.724c-0.42-2.621-1.516-5.042-2.946-7.279
					c-0.565,0.61-1.413,0.947-2.242,0.891c-0.83-0.056-1.689-0.297-2.167-0.977c-0.151,1.036-0.978,1.94-1.996,2.183
					c-1.018,0.243-2.252,0.03-2.856-0.826c-0.25,1.11-1.149,2.049-2.247,2.347c-1.099,0.298-2.387,0.035-3.164-0.798
					c-0.178,1.128-1.101,2.1-2.218,2.336c-1.117,0.237-2.439-0.357-3.06-1.315c-1.936-0.013-3.834,1.135-4.722,2.854
					c-0.888,1.72-0.725,3.932,0.406,5.503c1.131,1.571,3.177,2.427,5.09,2.131c-0.61,2.317-0.953,4.566-1.564,6.883
					c-3.747,1.253-7.586,2.189-11.334,3.441c1.563,5.694,5.118,10.735,10.234,13.682c5.117,2.946,11.407,3.783,17.116,2.276
					C166.208,148.927,171.663,145.051,174.659,139.963z"/>
				<circle style="fill:#060305;" cx="164.972" cy="116.267" r="0.878"/>
				<path style="fill:#060305;" d="M155.433,117.831c0-0.485-0.393-0.878-0.878-0.878c-0.485,0-0.878,0.393-0.878,0.878
					s0.393,0.878,0.878,0.878C155.04,118.709,155.433,118.316,155.433,117.831z"/>
				<path style="fill:none;stroke:#060305;stroke-width:0.8;stroke-linecap:round;stroke-linejoin:round;stroke-miterlimit:10;" d="
					M143.13,117.288c0.96,0.21,1.921,0.421,2.881,0.631"/>
				<path style="fill:none;stroke:#060305;stroke-width:0.8;stroke-linecap:round;stroke-linejoin:round;stroke-miterlimit:10;" d="
					M152.763,115.625c0.256-0.602,0.808-1.07,1.444-1.223c0.636-0.153,1.34,0.011,1.842,0.431"/>
				<path style="fill:none;stroke:#060305;stroke-width:0.8;stroke-linecap:round;stroke-linejoin:round;stroke-miterlimit:10;" d="
					M162.996,112.729c0.732-0.236,1.464-0.473,2.196-0.709"/>
				<path style="fill:none;stroke:#060305;stroke-width:0.8;stroke-linecap:round;stroke-linejoin:round;stroke-miterlimit:10;" d="
					M160.092,119.322c0.495-0.086,1.027-0.228,1.522-0.314c-0.354-0.909-0.707-1.818-1.061-2.727"/>
				<path style="fill:none;stroke:#060305;stroke-width:0.8;stroke-linecap:round;stroke-linejoin:round;stroke-miterlimit:10;" d="
					M157.159,120.545c-0.031,0.496,0.302,0.992,0.773,1.151c0.47,0.159,1.036-0.032,1.313-0.444"/>
				<path style="fill:none;stroke:#060305;stroke-width:0.8;stroke-linecap:round;stroke-linejoin:round;stroke-miterlimit:10;" d="
					M153.3,127.865c2.799,1.511,6.314,1.617,9.2,0.277"/>
				<path style="fill:none;stroke:#060305;stroke-width:0.8;stroke-linecap:round;stroke-linejoin:round;stroke-miterlimit:10;" d="
					M145.824,124.245c0.365-0.052,0.729-0.103,1.094-0.155"/>
			</g>
		</g>
		<g>
			<path style="fill:#FFD1C7;" d="M143.367,233.225c-7.552-2.193-14.969-4.09-22.522-6.282c-1.223-1.362-2.468-2.83-3.691-4.192
				c-6.383,0.171-12.766,0.342-19.149,0.513c-5.297,0.142-10.814,0.241-15.621-1.989c-4.985-2.312-8.685-7.057-10.082-12.372
				c-1.396-5.315-0.57-11.111,1.916-16.012c2.485-4.901,7.032-9.294,11.776-12.066c17.2,3.89,34.405,7.781,51.746,10.986
				c6.909,7.128,13.51,14.202,20.42,21.33c0.597,0.615,1.005,1.435,1.087,2.288c0.081,0.854-0.131,1.732-0.594,2.454
				c-3.585-1.631-7.166-3.397-10.751-5.028c3.268,2.42,6.235,5.128,9.215,7.895c0.631,0.585,0.999,1.441,1.073,2.299
				c0.073,0.857-0.13,1.736-0.572,2.474c-0.891-0.446-1.908-0.822-2.799-1.268c0.542,0.475,0.798,1.162,0.848,1.881
				c0.049,0.719-0.196,1.453-0.667,1.998c-7.88-1.883-16.011-3.546-23.89-5.43c3.715,2.181,7.506,4.413,11.221,6.594
				c0.648,0.381,1.233,1.086,1.439,1.809C143.975,231.83,143.744,232.574,143.367,233.225z"/>
			<path style="fill:none;stroke:#060305;stroke-width:0.8;stroke-linecap:round;stroke-linejoin:round;stroke-miterlimit:10;" d="
				M87.274,181.121c7.571,1.75,15.142,3.5,22.713,5.251"/>
			<path style="fill:none;stroke:#060305;stroke-width:0.8;stroke-linecap:round;stroke-linejoin:round;stroke-miterlimit:10;" d="
				M110.589,216.38c2.285,2.332,4.569,4.664,6.854,6.996"/>
			<path style="fill:none;stroke:#060305;stroke-width:0.8;stroke-linecap:round;stroke-linejoin:round;stroke-miterlimit:10;" d="
				M127.551,221.878c2.092,0.635,4.184,1.27,6.276,1.904"/>
			<path style="fill:none;stroke:#060305;stroke-width:0.8;stroke-linecap:round;stroke-linejoin:round;stroke-miterlimit:10;" d="
				M131.512,212.308c7.922,4.112,15.844,8.224,23.766,12.336"/>
			<path style="fill:none;stroke:#060305;stroke-width:0.8;stroke-linecap:round;stroke-linejoin:round;stroke-miterlimit:10;" d="
				M136.421,204.551c4.538,3.204,9.076,6.407,13.613,9.611"/>
		</g>
		<g>
			<path style="fill:#FFD1C7;" d="M247.104,254.628c-6.166-4.089-12.176-8.175-18.407-12.265c0.195-0.783,0.746-1.471,1.469-1.83
				c0.723-0.359,1.788-0.148,2.56,0.09c4.167,1.285,8.477,2.365,12.644,3.651c-6.614-3.588-13.4-6.981-20.014-10.568
				c-0.102-1.339,0.808-2.942,2.15-2.991c0.872-0.032,1.959-0.042,2.831-0.074c-1.582-0.518-3.28-0.964-4.862-1.482
				c0.081-0.917,0.529-1.797,1.224-2.402c0.695-0.604,1.832-0.874,2.751-0.813c3.418,0.227,6.682,0.507,10.1,0.733
				c-3.09-1.445-6.453-2.666-9.543-4.111c0.595-1.657,2.712-2.774,4.469-2.656l25.221,1.691c3.29,0.221,5.975,2.709,6.466,5.971
				c0.553,3.679,0.639,7.413-0.113,11.033c-1.428,6.881-5.653,12.836-11.605,16.27C252.157,256.194,249.304,256.087,247.104,254.628
				z"/>
			<path style="fill:none;stroke:#060305;stroke-width:0.8;stroke-linecap:round;stroke-linejoin:round;stroke-miterlimit:10;" d="
				M228.736,230.307c7.842,2.694,15.684,5.387,23.525,8.081"/>
			<path style="fill:none;stroke:#060305;stroke-width:0.8;stroke-linecap:round;stroke-linejoin:round;stroke-miterlimit:10;" d="
				M238.486,226.205c5.407,1.3,10.813,2.599,16.22,3.899"/>
			<path style="fill:none;stroke:#060305;stroke-width:0.8;stroke-linecap:round;stroke-linejoin:round;stroke-miterlimit:10;" d="
				M243.695,243.571c1.531,1.092,3.062,2.183,4.593,3.275"/>
		</g>
	</g>
	
</g>
</svg>
